<?xml version="1.0" encoding="UTF-8"?>
<svg width="43px" height="33px" viewBox="0 0 43 33" version="1.1" xmlns="http://www.w3.org/2000/svg" xmlns:xlink="http://www.w3.org/1999/xlink">
    <!-- Generator: Sketch 47.1 (45422) - http://www.bohemiancoding.com/sketch -->
    <title>uEA19-register-content-logo.svg</title>
    <desc>Created with Sketch.</desc>
    <defs></defs>
    <g id="Symbols" stroke="none" stroke-width="1" fill="none" fill-rule="evenodd">
        <g id="Menu" transform="translate(-27.000000, -439.000000)" fill-rule="nonzero" fill="#000000">
            <g id="Group-Copy-7" transform="translate(0.000000, 429.000000)">
                <path d="M59.025647,36.5949509 C57.4001786,40.2870085 53.7256035,42.8415423 49.4094948,42.8470758 C45.0863494,42.8470762 41.393398,40.2885909 39.7617513,36.5949509 L34.8447772,36.5949509 C31.0760041,36.6413153 27.983224,33.6237069 27.9368595,29.8549338 C27.890495,26.0861607 30.9081033,22.9933805 34.6768765,22.9470159 L34.6768765,22.4433135 C34.6782261,20.293594 35.676871,18.2661521 37.3803104,16.9548207 C39.0837498,15.6434893 41.2991904,15.1966835 43.3777349,15.7452716 C45.7026544,10.9987675 51.2544873,8.79700798 56.2005971,10.6599495 C60.772459,12.3819314 63.442183,17.055263 62.72695,21.7810194 L62.4824453,22.9410194 L63.675648,22.958878 C67.2137634,23.2137469 70.005,26.1649019 70.005,29.7679852 C70.005,33.5384142 66.9484633,36.5949509 63.1780343,36.5949509 L59.025647,36.5949509 Z M59.456437,35.4349509 L63.1780343,35.4349509 C66.307813,35.4349509 68.845,32.8977639 68.845,29.7679852 C68.845,26.6382064 66.307813,24.1010194 63.1780343,24.1010194 L60.9657457,24.1010194 L61.3629261,22.6372485 C62.590423,18.1134242 60.178296,13.3976942 55.791726,11.7455021 C51.405156,10.09331 46.4813867,12.0459905 44.4194788,16.2555358 L44.0011742,17.1095372 L43.0817139,16.8668649 C41.3509976,16.4100788 39.5062937,16.7821151 38.0879116,17.8740054 C36.6695295,18.9658957 35.838,20.6540611 35.8368765,22.4433135 L35.8368765,24.092833 L34.6911461,24.1069281 C31.5629748,24.1454119 29.0582881,26.7124929 29.0967718,29.8406642 C29.1352554,32.9688355 31.7023364,35.4735223 34.8447772,35.4349509 L39.3296014,35.4349509 C39.0289801,34.4537213 38.8673579,33.4101036 38.8673579,32.3265983 C38.8673579,26.4870581 43.5619331,21.8061202 49.4087512,21.8061202 C55.2501569,21.8061202 59.9190867,26.4816556 59.9190863,32.3273419 C59.9176971,33.4109238 59.7560698,34.4542249 59.456437,35.4349509 Z M49.4087512,41.6870763 C54.6060381,41.6804126 58.7524176,37.5281652 58.7590867,32.3265983 C58.7590867,27.1219391 54.6091392,22.9661202 49.4087512,22.9661202 C44.2018292,22.9661202 40.0273579,27.1284651 40.0273579,32.3265983 C40.0273579,37.5247315 44.2018292,41.6870763 49.4087512,41.6870763 Z M54.4411971,32.2535164 C54.4443233,32.2035948 54.4443233,32.1535266 54.4411971,32.103605 C54.4279919,32.0508192 54.4119786,31.9987759 54.3932255,31.9476971 C54.3932255,31.8997255 54.3572467,31.8457574 54.3392574,31.8097786 C54.31457,31.7561008 54.2865312,31.7040287 54.255307,31.6538707 L54.1653601,31.5459345 C54.133991,31.5000036 54.0999526,31.4559538 54.0634204,31.4140125 L53.9494877,31.2940834 L53.8295586,31.1981401 L53.7336153,31.132179 L53.6436684,31.0722145 L48.3308079,28.0739862 C47.8307626,27.7992725 47.2230376,27.8080281 46.7311139,28.0970333 C46.2391902,28.3860384 45.9356918,28.9126266 45.9322253,29.4831535 L45.9322253,35.5935427 C45.9356918,36.1640695 46.2391902,36.6906577 46.7311139,36.9796629 C47.2230376,37.2686681 47.8307626,37.2774237 48.3308079,37.00271 L53.6436684,34.0044817 C54.151894,33.7154219 54.4639129,33.1739773 54.4591865,32.589318 C54.4605834,32.5633521 54.4605834,32.5373299 54.4591865,32.511364 C54.4607301,32.4834019 54.4607301,32.4553758 54.4591865,32.4274136 C54.4574286,32.3690874 54.4514162,32.3109673 54.4411971,32.2535164 Z M53.2419058,32.5473428 C53.248033,32.7041731 53.1673786,32.8516554 53.0320298,32.931116 L47.7191694,35.9293442 C47.5889464,36.0045315 47.4284525,36.0043164 47.2984315,35.9287804 C47.1684105,35.8532443 47.0887277,35.7139282 47.0895414,35.5635604 L47.0895414,29.4531712 C47.0906429,29.2628299 47.2179539,29.0963462 47.4013572,29.0454122 L47.5152899,29.0454122 C47.5887663,29.0447215 47.6611368,29.0633311 47.7251658,29.0993803 L53.0140405,32.0976085 L53.0500192,32.0976085 L53.1099838,32.1455802 L53.1639519,32.2055447 L53.1939342,32.2595129 L53.1939342,32.3194774 L53.1939342,32.3914349 L53.1939342,32.4633924 C53.2133813,32.4932814 53.2354558,32.5213762 53.2598952,32.5473428 L53.2419058,32.5473428 Z" id="uEA19-register-content-logo.svg"></path>
            </g>
        </g>
    </g>
</svg>