<?xml version="1.0" encoding="UTF-8"?>
<svg width="20px" height="16px" viewBox="0 0 20 16" version="1.1" xmlns="http://www.w3.org/2000/svg" xmlns:xlink="http://www.w3.org/1999/xlink">
    <!-- Generator: Sketch 47.1 (45422) - http://www.bohemiancoding.com/sketch -->
    <title>uEA24-edit</title>
    <desc>Created with Sketch.</desc>
    <defs></defs>
    <g id="Symbols" stroke="none" stroke-width="1" fill="none" fill-rule="evenodd">
        <g id="uEA24-edit" fill-rule="nonzero" fill="#000000">
            <g id="Group">
                <path d="M12.0556406,0.00240824751 C11.9682642,0.0118564828 11.8866352,0.050528882 11.8239741,0.112162157 L1.09415828,10.8436556 C1.03931313,10.8965815 1.00116448,10.9644119 0.984421523,11.0387736 L0.00898371797,15.526489 C-0.0195497219,15.6572305 0.0208812555,15.7934771 0.116107681,15.8874815 C0.211334107,15.9814859 0.348076291,16.0201389 0.478413161,15.9898944 L4.96542706,15.0143041 C5.0369052,14.998184 5.10240114,14.9622613 5.15441814,14.9106477 L15.884234,4.17915426 C15.958315,4.10584749 16,4.00594935 16,3.90172076 C16,3.79749218 15.958315,3.69759404 15.884234,3.62428727 L12.3726579,0.112162157 C12.2889039,0.0296948875 12.1724467,-0.0106235192 12.0556406,0.00240824751 Z M12.098316,0.94141392 L15.0612083,3.90476948 L13.9516478,5.00840602 L10.9887555,2.0511479 L12.098316,0.94141392 Z M10.4400717,2.59991745 L13.4029641,5.56327301 L4.97762004,13.9838369 L2.0147277,11.0265787 L10.4400717,2.59991745 Z M1.63674555,11.7460766 L4.25823465,14.3679755 L0.905167201,15.0996683 L1.63674555,11.7460766 Z" id="Shape"></path>
            </g>
        </g>
    </g>
</svg>