<?xml version="1.0" encoding="UTF-8"?>
<svg width="20px" height="16px" viewBox="0 0 20 16" version="1.1" xmlns="http://www.w3.org/2000/svg" xmlns:xlink="http://www.w3.org/1999/xlink">
    <!-- Generator: Sketch 47.1 (45422) - http://www.bohemiancoding.com/sketch -->
    <title>uEA22-type-image</title>
    <desc>Created with Sketch.</desc>
    <defs></defs>
    <g id="Symbols" stroke="none" stroke-width="1" fill="none" fill-rule="evenodd">
        <g id="uEA22-type-image" fill-rule="nonzero" fill="#20232C">
            <path d="M3.03108755,0.180000007 C1.6388256,0.180000007 0.508338681,1.30482854 0.508338681,2.69024086 L0.508338681,9.13782828 C0.5,9.15480345 0.5,9.17177862 0.5,9.18815818 L0.5,13.3104448 C0.5,14.0073203 0.786791071,14.6368907 1.24244044,15.0904554 C1.30140682,15.1407853 1.35203453,15.1997517 1.41100092,15.2500816 C1.4193396,15.2500816 1.4193396,15.2500816 1.4193396,15.2500816 C1.48694248,15.3004115 1.54590887,15.3507414 1.60487526,15.3927326 C1.61321394,15.3927326 1.61321394,15.3927326 1.61321394,15.3927326 C1.68081682,15.4350216 1.74812189,15.476715 1.81572477,15.5187063 L1.82406345,15.5187063 C1.89166633,15.5523588 1.96760789,15.59435 2.04354945,15.6196639 L2.04354945,15.6196639 C2.11949101,15.6530186 2.19543257,15.6869689 2.27137413,15.711985 C2.27137413,15.711985 2.27137413,15.711985 2.27971281,15.711985 C2.35565438,15.7372988 2.43993462,15.754274 2.51587618,15.7709514 L2.52421486,15.7709514 C2.60015642,15.7876287 2.67609798,15.7959674 2.76067603,15.8043061 L2.76901471,15.8043061 C2.85329496,15.8126448 2.9375752,15.8212813 3.02215325,15.8212813 L3.03049193,15.8212813 L14.1257029,15.8212813 L17.0281596,15.8212813 C17.7199723,15.8212813 18.3528186,15.5440201 18.808468,15.0907532 C19.2730517,14.6368907 19.5598427,14.0073203 19.5598427,13.3104448 L19.5598427,2.69024086 C19.5598427,1.30512635 18.4293558,0.180000007 17.0370939,0.180000007 L3.03108755,0.180000007 L3.03108755,0.180000007 Z M3.03108755,0.658580746 L17.0370939,0.658580746 C18.1759195,0.658580746 19.0788795,1.55707364 19.0788795,2.69024086 L19.0788795,8.30664045 L16.8852107,6.12399065 C16.3536198,5.59508001 15.6618071,5.33479404 14.9696965,5.33479404 C14.2862225,5.33479404 13.5860711,5.59508001 13.0628188,6.12399065 L9.02153656,10.1453197 L6.13605506,7.28276952 C5.60446413,6.76219757 4.91294921,6.49357291 4.22083867,6.49357291 C3.52872813,6.49357291 2.8455519,6.76219757 2.31396097,7.28276952 L0.980665409,8.60921545 L0.980665409,2.69024086 C0.980665409,1.55677583 1.89196414,0.658580746 3.03108755,0.658580746 L3.03108755,0.658580746 Z M8.97090885,2.75754593 C7.84876061,2.75754593 6.93746188,3.66437751 6.93746188,4.77252867 C6.93746188,5.88931633 7.84905842,6.7958501 8.97090885,6.7958501 C10.0844206,6.7958501 10.9960171,5.88931633 10.9960171,4.77252867 C10.9960171,3.6640797 10.0847184,2.75754593 8.97090885,2.75754593 L8.97090885,2.75754593 Z M8.97090885,3.23612666 C9.83157988,3.23612666 10.5150539,3.91602699 10.5150539,4.77223086 C10.5150539,5.62873255 9.83157988,6.31726937 8.97090885,6.31726937 C8.11023783,6.31726937 7.41008642,5.62873255 7.41008642,4.77223086 C7.41008642,3.91602699 8.11053564,3.23612666 8.97090885,3.23612666 L8.97090885,3.23612666 Z M14.9699944,5.81337477 C15.5438743,5.81337477 16.1177543,6.01499217 16.547792,6.4515817 L19.0708386,8.96182254 L19.0708386,13.3104448 C19.0708386,13.873008 18.8513526,14.3849434 18.4802813,14.7548235 C18.1089122,15.1241079 17.6029329,15.3424027 17.0373917,15.3507414 L14.2445291,15.3507414 L14.1432737,15.2500816 L9.35091447,10.4812494 L13.3921967,6.4515817 C13.8308709,6.02333085 14.4044531,5.81337477 14.9699944,5.81337477 L14.9699944,5.81337477 Z M4.22083867,6.96381497 C4.78578432,6.96381497 5.35966428,7.18181192 5.79863628,7.61840144 L8.8360009,10.6405778 C8.8360009,10.6405778 8.84433958,10.6489164 8.85297608,10.6489164 L13.5777324,15.3504436 L3.03108755,15.3504436 L3.02274887,15.3504436 C2.95514599,15.3504436 2.88784092,15.3421049 2.82023804,15.3421049 C2.82023804,15.3421049 2.82023804,15.3421049 2.81189936,15.3421049 C2.74429648,15.3337662 2.6766936,15.3170889 2.60909072,15.3001137 L2.60909072,15.3001137 C2.54148784,15.291775 2.48252145,15.2747998 2.42355507,15.2581225 C2.41521638,15.2581225 2.41521638,15.2581225 2.41521638,15.2581225 C2.3476135,15.2411473 2.29728361,15.2158334 2.23801941,15.1908174 C2.22968073,15.1908174 2.22968073,15.1908174 2.22968073,15.1908174 C2.17071434,15.1655035 2.10311146,15.1321488 2.04414507,15.0981985 C2.04414507,15.0981985 2.04414507,15.1065372 2.04414507,15.0981985 C1.98517868,15.0731824 1.93425317,15.0308934 1.88362546,14.9975387 L1.87528678,14.9975387 C1.82465907,14.9638861 1.77403136,14.9302336 1.73204015,14.8882424 C1.72370147,14.8882424 1.72370147,14.8882424 1.72370147,14.8882424 C1.67307376,14.8462512 1.62244605,14.7959213 1.58045483,14.7542279 C1.20908571,14.3846456 0.981261029,13.8724123 0.981261029,13.3098492 L0.981261029,9.27154499 L2.65167756,7.61750801 C3.09005394,7.18181192 3.65559521,6.96381497 4.22083867,6.96381497 L4.22083867,6.96381497 Z" id="Shape"></path>
        </g>
    </g>
</svg>