<?xml version="1.0" encoding="UTF-8"?>
<svg width="15px" height="16px" viewBox="0 0 15 16" version="1.1" xmlns="http://www.w3.org/2000/svg" xmlns:xlink="http://www.w3.org/1999/xlink">
    <!-- Generator: Sketch 47.1 (45422) - http://www.bohemiancoding.com/sketch -->
    <title>uEA21-upload</title>
    <desc>Created with Sketch.</desc>
    <defs></defs>
    <g id="Symbols" stroke="none" stroke-width="1" fill="none" fill-rule="evenodd">
        <g id="uEA21-upload" fill-rule="nonzero" fill="#000000">
            <path d="M13.8789425,5.62200957 L8.14384425,1.07863532 C8.03791895,0.991262742 7.87146491,0.976700645 7.73527524,1.03494903 C7.59908557,1.09319742 7.52342465,1.22425629 7.52342465,1.36987726 L7.52342465,3.74349906 C0.971188365,3.96193052 0.986320551,8.76742251 1.00145274,11.0827959 L1.00145274,11.3594758 C1.00145274,11.5196588 1.12251022,11.6652798 1.28896426,11.7089661 C1.31922863,11.7235282 1.349493,11.7235282 1.37975737,11.7235282 C1.51594704,11.7235282 1.63700452,11.6507177 1.71266545,11.5342209 C3.634453,8.27231121 5.23846465,8.09756605 7.52342465,8.09756605 L7.52342465,10.4711879 C7.52342465,10.6168088 7.61421776,10.7333056 7.73527524,10.8061161 C7.87146491,10.8643645 8.02278676,10.8498024 8.14384425,10.7624298 L13.8638103,6.20449345 C13.9546034,6.13168296 14,6.02974828 14,5.92781361 C14,5.82587893 13.9697356,5.69482005 13.8789425,5.62200957 Z M8.28003392,9.68483462 L8.28003392,7.73351363 C8.28003392,7.63157895 8.23463736,7.54420637 8.17410862,7.47139588 C8.09844769,7.3985854 8.00765458,7.3694612 7.90172928,7.3694612 C5.37465432,7.3694612 3.61932081,7.51508217 1.75806201,10.0925733 C1.78832638,9.08778864 1.93964823,7.90825879 2.49953909,6.9034741 C3.40747022,5.28708134 5.17793591,4.48616601 7.90172928,4.45704181 C8.11357988,4.45704181 8.28003392,4.29685875 8.28003392,4.09298939 L8.28003392,2.1271063 L13.0315401,5.89868941 L8.28003392,9.68483462 Z M13.5611666,15 L1.37975737,15 C1.16790678,15 1.00145274,14.8398169 1.00145274,14.6359476 L1.00145274,13.0923653 C1.00145274,12.8884959 1.16790678,12.7283129 1.37975737,12.7283129 C1.59160797,12.7283129 1.75806201,12.903058 1.75806201,13.0923653 L1.75806201,14.2573331 L13.182862,14.2573331 L13.182862,8.18493863 C13.182862,7.98106927 13.349316,7.82088621 13.5611666,7.82088621 C13.7730172,7.82088621 13.9394713,7.98106927 13.9394713,8.18493863 L13.9394713,14.6213855 C13.9394713,14.8398169 13.7730172,15 13.5611666,15 Z" id="Shape"></path>
        </g>
    </g>
</svg>