<?xml version="1.0" encoding="UTF-8"?>
<svg width="27px" height="27px" viewBox="0 0 27 27" version="1.1" xmlns="http://www.w3.org/2000/svg" xmlns:xlink="http://www.w3.org/1999/xlink">
    <!-- Generator: Sketch 47.1 (45422) - http://www.bohemiancoding.com/sketch -->
    <title>uEA28-check-cutout</title>
    <desc>Created with Sketch.</desc>
    <defs></defs>
    <g id="Symbols" stroke="none" stroke-width="1" fill="none" fill-rule="evenodd">
        <g id="uEA28-check-cutout" transform="translate(-1.000000, -1.000000)" fill="#000000" fill-rule="nonzero">
            <path d="M14.5,28 C7.04415587,28 1,21.9558441 1,14.5 C1,7.04415587 7.04415587,1 14.5,1 C21.9558441,1 28,7.04415587 28,14.5 C28,21.9558441 21.9558441,28 14.5,28 Z M14.5,27.25 C21.5416306,27.25 27.25,21.5416306 27.25,14.5 C27.25,7.45836944 21.5416306,1.75 14.5,1.75 C7.45836944,1.75 1.75,7.45836944 1.75,14.5 C1.75,21.5416306 7.45836944,27.25 14.5,27.25 Z M8.39661359,15.0399581 L12.8036941,19.3594398 L21.6790678,10.6347601 C21.8267629,10.4895728 22.064191,10.4916056 22.2093784,10.6393007 C22.3545658,10.7869958 22.3525329,11.024424 22.2048378,11.1696114 L13.0669669,20.1523313 C12.9212105,20.2956129 12.6875594,20.2957853 12.5415918,20.152719 L7.87163351,15.5755847 C7.72372429,15.4306155 7.72134098,15.1931906 7.86631023,15.0452814 C8.01127947,14.8973722 8.24870438,14.8949888 8.39661359,15.0399581 Z"></path>
        </g>
    </g>
</svg>