<?xml version="1.0" encoding="UTF-8"?>
<svg width="21px" height="16px" viewBox="0 0 21 16" version="1.1" xmlns="http://www.w3.org/2000/svg" xmlns:xlink="http://www.w3.org/1999/xlink">
    <!-- Generator: Sketch 47.1 (45422) - http://www.bohemiancoding.com/sketch -->
    <title>uEA21-upload</title>
    <desc>Created with Sketch.</desc>
    <defs></defs>
    <g id="Symbols" stroke="none" stroke-width="1" fill="none" fill-rule="evenodd">
        <g id="uEA21-upload" fill-rule="nonzero" fill="#000000">
            <path d="M12.7552086,10.9143288 L12.7552086,12.5797637 C12.7552086,13.4772264 12.0276713,14.2047637 11.1302086,14.2047637 L3.53095662,14.2047637 C2.6334939,14.2047637 1.90595662,13.4772264 1.90595662,12.5797637 L1.90595662,3.44946198 C1.90595662,2.55199927 2.6334939,1.82446198 3.53095662,1.82446198 L11.1302086,1.82446198 C12.0276713,1.82446198 12.7552086,2.55199927 12.7552086,3.44946198 L12.7552086,4.73122965 C12.7552086,4.93833644 12.9231018,5.10622965 13.1302086,5.10622965 C13.3373154,5.10622965 13.5052086,4.93833644 13.5052086,4.73122965 L13.5052086,3.44946198 C13.5052086,2.1377857 12.4418849,1.07446198 11.1302086,1.07446198 L3.53095662,1.07446198 C2.21928034,1.07446198 1.15595662,2.1377857 1.15595662,3.44946198 L1.15595662,12.5797637 C1.15595662,13.89144 2.21928034,14.9547637 3.53095662,14.9547637 L11.1302086,14.9547637 C12.4418849,14.9547637 13.5052086,13.89144 13.5052086,12.5797637 L13.5052086,10.9143288 C13.5052086,10.707222 13.3373154,10.5393288 13.1302086,10.5393288 C12.9231018,10.5393288 12.7552086,10.707222 12.7552086,10.9143288 Z" id="Rectangle"></path>
            <path d="M15.5868577,10.9929504 C15.4404111,11.139397 15.4404111,11.3768339 15.5868577,11.5232805 C15.7333044,11.6697271 15.9707412,11.6697271 16.1171878,11.5232805 L19.6926082,7.94786018 C19.8390548,7.80141357 19.8390548,7.5639767 19.6926082,7.4175301 L16.3590148,4.08393674 C16.2125682,3.93749013 15.9751313,3.93749013 15.8286847,4.08393674 C15.6822381,4.23038335 15.6822381,4.46782021 15.8286847,4.61426682 L18.897113,7.68269514 L15.5868577,10.9929504 Z" id="Path-11"></path>
            <path d="M9.30182576,8.05769514 L19.4274431,8.05769514 C19.6345499,8.05769514 19.8024431,7.88980192 19.8024431,7.68269514 C19.8024431,7.47558836 19.6345499,7.30769514 19.4274431,7.30769514 L9.30182576,7.30769514 C9.09471898,7.30769514 8.92682576,7.47558836 8.92682576,7.68269514 C8.92682576,7.88980192 9.09471898,8.05769514 9.30182576,8.05769514 Z" id="Path-11"></path>
        </g>
    </g>
</svg>