<?xml version="1.0" encoding="UTF-8"?>
<svg width="16px" height="14px" viewBox="0 0 16 14" version="1.1" xmlns="http://www.w3.org/2000/svg" xmlns:xlink="http://www.w3.org/1999/xlink">
    <!-- Generator: Sketch 47.1 (45422) - http://www.bohemiancoding.com/sketch -->
    <title>uEA26-bullhorn</title>
    <desc>Created with Sketch.</desc>
    <defs></defs>
    <g id="Symbols" stroke="none" stroke-width="1" fill="none" fill-rule="evenodd">
        <g id="uEA26-bullhorn" fill-rule="nonzero" fill="#000000">
            <path d="M7.37322835,11.4967885 L11.8614173,13.525135 C12.7433071,13.925135 13.7417323,13.2794657 13.7417323,12.3125366 L13.7417323,9.42749721 C15.0173228,9.24482004 16,8.14875705 16,6.8227728 C16,5.49678855 15.0173228,4.40072555 13.7417323,4.21804839 L13.7417323,1.33300902 C13.7417323,0.366079884 12.7433071,-0.279589407 11.8614173,0.120410593 L2.57322835,4.31568618 L0.444094488,4.31568618 C0.198425197,4.31568618 0,4.51411138 0,4.75978067 L0,8.88261532 C0,9.12828461 0.198425197,9.32670981 0.444094488,9.32670981 L2.47244094,9.32670981 C2.3023622,10.6810405 3.14330709,11.9944263 4.49448819,12.3723791 C5.54645669,12.6495445 6.63937008,12.3566311 7.37322835,11.4967885 Z M0.888188976,5.20702477 L2.22677165,5.20702477 L2.22677165,8.44167044 L0.888188976,8.44167044 L0.888188976,5.20702477 Z M4.73385827,11.5188358 C3.88976378,11.2826153 3.33858268,10.5109618 3.33858268,9.6731665 L6.51023622,11.1062374 C6.03149606,11.525135 5.36062992,11.6952137 4.73385827,11.5188358 Z M12.223622,12.7156862 L3.11496063,8.59600114 L3.11496063,5.04954445 L12.223622,0.929859412 C12.5165354,0.797575947 12.8503937,1.01174918 12.8503937,1.33615862 L12.8503937,12.309387 C12.8535433,12.6337964 12.519685,12.8479696 12.223622,12.7156862 Z M13.7417323,8.52670981 L13.7417323,5.11883579 C14.5228346,5.29206414 15.111811,5.98812713 15.111811,6.8227728 C15.111811,7.65741847 14.5228346,8.35348146 13.7417323,8.52670981 Z" id="Shape"></path>
        </g>
    </g>
</svg>