<?xml version="1.0" encoding="UTF-8"?>
<svg width="18px" height="15px" viewBox="0 0 18 15" version="1.1" xmlns="http://www.w3.org/2000/svg" xmlns:xlink="http://www.w3.org/1999/xlink">
    <!-- Generator: Sketch 47.1 (45422) - http://www.bohemiancoding.com/sketch -->
    <title>uEA21-upload</title>
    <desc>Created with Sketch.</desc>
    <defs></defs>
    <g id="Symbols" stroke="none" stroke-width="1" fill="none" fill-rule="evenodd">
        <g id="uEA21-upload" fill-rule="nonzero" fill="#000000">
            <g id="Group">
                <path d="M8.93874107,14 L4.76739607,14 C2.13883107,14 0,11.7121634 0,8.89966986 C0,6.08717631 2.13883107,3.79933973 4.76739607,3.79933973 C5.03437025,3.79933973 5.30573213,3.82533787 5.57776903,3.87697307 C6.68380492,1.50717012 8.94211622,0 11.4434382,0 C15.0585588,0 18,3.14649747 18,7.01444341 C18,9.63520066 16.6502784,12.0180027 14.4776959,13.233777 C14.2302976,13.3720726 13.9238342,13.2702466 13.794566,13.0048489 C13.6652979,12.7394512 13.760477,12.4123079 14.0085504,12.2740122 C15.8459808,11.2460023 16.9874557,9.2307851 16.9874557,7.0148045 C16.9874557,3.74445476 14.5006469,1.08361704 11.4434382,1.08361704 C9.20807785,1.08361704 7.20256511,2.50737646 6.33312707,4.71071908 L6.16200709,5.14510471 L5.73606345,5.02341896 C5.40901164,4.93025895 5.08297238,4.88259569 4.76705856,4.88259569 C2.69640547,4.88259569 1.01220678,6.68477252 1.01220678,8.89966986 C1.01220678,11.1145672 2.69640547,12.916744 4.76705856,12.916744 L8.93806604,12.916744 C9.21752827,12.916744 9.44433819,13.1590323 9.44433819,13.458372 C9.44433819,13.7577118 9.2182033,14 8.93874107,14 Z" id="Shape"></path>
                <path d="M12.0484162,14.1884764 C11.7724162,14.1884764 11.5484162,13.9562072 11.5484162,13.6692456 L11.5484162,5.70770717 C11.5484162,5.42074563 11.7724162,5.1884764 12.0484162,5.1884764 C12.3244162,5.1884764 12.5484162,5.42074563 12.5484162,5.70770717 L12.5484162,13.6692456 C12.5484162,13.955861 12.3244162,14.1884764 12.0484162,14.1884764 Z" id="Shape"></path>
                <path d="M8.86436364,8.89563636 C8.70763636,8.89563636 8.55272727,8.82872727 8.44472727,8.69890909 C8.25236364,8.46727273 8.28363636,8.12327273 8.51490909,7.93090909 L11.7185455,5.26436364 C11.9505455,5.07127273 12.2941818,5.10327273 12.4869091,5.33454545 C12.6792727,5.56618182 12.648,5.91018182 12.4167273,6.10254545 L9.21309091,8.76909091 C9.11127273,8.85454545 8.98727273,8.89563636 8.86436364,8.89563636 Z" id="Shape"></path>
                <path d="M15.2709091,8.89563636 C15.148,8.89563636 15.024,8.85418182 14.9221818,8.76945455 L11.7181818,6.10290909 C11.4865455,5.91018182 11.4552727,5.56618182 11.648,5.33490909 C11.8407273,5.10363636 12.1847273,5.07163636 12.4163636,5.26472727 L15.6203636,7.93127273 C15.852,8.124 15.8832727,8.468 15.6905455,8.69927273 C15.5829091,8.82872727 15.4276364,8.89563636 15.2709091,8.89563636 Z" id="Shape"></path>
            </g>
        </g>
    </g>
</svg>