<?xml version="1.0" encoding="UTF-8"?>
<svg width="20px" height="16px" viewBox="0 0 20 16" version="1.1" xmlns="http://www.w3.org/2000/svg" xmlns:xlink="http://www.w3.org/1999/xlink">
    <!-- Generator: Sketch 47.1 (45422) - http://www.bohemiancoding.com/sketch -->
    <title>uEA23-type-video</title>
    <desc>Created with Sketch.</desc>
    <defs></defs>
    <g id="Symbols" stroke="none" stroke-width="1" fill="none" fill-rule="evenodd">
        <g id="uEA23-type-video" fill-rule="nonzero" fill="#20232C">
            <path d="M1,2.54545455 C0.723857625,2.54545455 0.5,2.78966286 0.5,3.09090909 L0.5,12.9090909 C0.5,13.2103371 0.723857625,13.4545455 1,13.4545455 L14,13.4545455 C14.2761424,13.4545455 14.5,13.2103371 14.5,12.9090909 L14.5,3.09090909 C14.5,2.78966286 14.2761424,2.54545455 14,2.54545455 L1,2.54545455 Z M1,2 L14,2 C14.5522847,2 15,2.48841664 15,3.09090909 L15,12.9090909 C15,13.5115834 14.5522847,14 14,14 L1,14 C0.44771525,14 1.04869017e-15,13.5115834 0,12.9090909 L0,3.09090909 C-6.76353751e-17,2.48841664 0.44771525,2 1,2 Z" id="Rectangle"></path>
            <path d="M14.7759181,6.54265962 L19.0183751,3.54206354 C19.1405707,3.47778382 19.2917388,3.52473393 19.3560185,3.64692955 C19.3748984,3.68282013 19.3847638,3.72276484 19.3847638,3.76331829 L19.3928468,12.1688822 C19.3928468,12.3069534 19.280918,12.4188822 19.1428468,12.4188822 C19.1032669,12.4188822 19.0642525,12.4094846 19.0290137,12.3914626 L14.6939285,9.35816062 L14.4662623,9.80332135 L18.8013474,12.8366233 C18.907064,12.8906894 19.024107,12.9188822 19.1428468,12.9188822 C19.5570604,12.9188822 19.8928468,12.5830958 19.8928468,12.1688822 L19.8847638,3.76331829 C19.8847638,3.64165794 19.8551676,3.52182381 19.798528,3.41415209 C19.6056889,3.04756522 19.1521845,2.90671488 18.7855976,3.09955405 L14.5431406,6.10015012 L14.7759181,6.54265962 Z" id="Path-4"></path>
        </g>
    </g>
</svg>