<?xml version="1.0" encoding="UTF-8"?>
<svg width="9px" height="9px" viewBox="0 0 9 9" version="1.1" xmlns="http://www.w3.org/2000/svg" xmlns:xlink="http://www.w3.org/1999/xlink">
    <!-- Generator: Sketch 47.1 (45422) - http://www.bohemiancoding.com/sketch -->
    <title>uEA29-last-modified</title>
    <desc>Created with Sketch.</desc>
    <defs></defs>
    <g id="Symbols" stroke="none" stroke-width="1" fill="none" fill-rule="evenodd">
        <g id="uEA29-last-modified" fill-rule="nonzero" fill="#000000">
            <path d="M4.41336768,8.65625 C6.81501609,8.65625 8.77533595,6.71830896 8.77533595,4.34407753 C8.77533595,1.9698461 6.81501609,0.0319050579 4.41336768,0.0319050579 C2.01171927,0.0319050579 0.0513994137,1.9698461 0.0513994137,4.34407753 C0.0513994137,6.71830896 2.01171927,8.65625 4.41336768,8.65625 Z M4.41336768,0.539219466 C6.53790281,0.539219466 8.26216321,2.24379588 8.26216321,4.34407753 C8.26216321,6.44435918 6.53790281,8.14893559 4.41336768,8.14893559 C2.28883255,8.14893559 0.564572151,6.44435918 0.564572151,4.34407753 C0.564572151,2.24379588 2.28883255,0.539219466 4.41336768,0.539219466 Z" id="Shape"></path>
            <polygon id="Shape" points="6.46605863 4.09042032 4.66995405 4.09042032 4.66995405 1.30019108 4.15678131 1.30019108 4.15678131 4.59773473 6.46605863 4.59773473"></polygon>
        </g>
    </g>
</svg>