<?xml version="1.0" encoding="UTF-8"?>
<svg width="18px" height="17px" viewBox="0 0 18 17" version="1.1" xmlns="http://www.w3.org/2000/svg" xmlns:xlink="http://www.w3.org/1999/xlink">
    <!-- Generator: Sketch 47.1 (45422) - http://www.bohemiancoding.com/sketch -->
    <title>uEA25-type-audio</title>
    <desc>Created with Sketch.</desc>
    <defs></defs>
    <g id="Symbols" stroke="none" stroke-width="1" fill="none" fill-rule="evenodd">
        <g id="uEA25-type-audio" fill-rule="nonzero" fill="#000000">
            <path d="M3.15096738,16.7804191 C1.54726526,16.7804191 0.301891032,15.8109367 0.301891032,14.5043975 C0.301891032,13.2387344 1.66093652,12.2283758 3.15096738,12.2283758 C4.61707676,12.2283758 5.96345545,13.2632521 5.96345545,14.5043975 C5.96345545,15.7881868 4.73178951,16.7804191 3.15096738,16.7804191 Z M3.15096738,16.1804191 C4.42550271,16.1804191 5.36345545,15.4248027 5.36345545,14.5043975 C5.36345545,13.6342225 4.31504532,12.8283758 3.15096738,12.8283758 C1.96024171,12.8283758 0.901891032,13.6151881 0.901891032,14.5043975 C0.901891032,15.4420357 1.85040097,16.1804191 3.15096738,16.1804191 Z" id="Oval"></path>
            <path d="M17.0718558,5.0335226 L17.0718558,0.97202797 L5.96072689,2.35861591 L5.96072689,6.46133888 L17.0718558,5.0335226 Z M5.79881079,1.77416795 L17.1099397,0.362621459 C17.3839566,0.328426139 17.633812,0.522839987 17.6680074,0.796856941 C17.6705705,0.817396092 17.6718558,0.838074583 17.6718558,0.858773045 L17.6718558,5.56135429 L5.36072689,7.14337447 L5.36072689,2.27031953 C5.36072689,2.01811901 5.54855141,1.80539849 5.79881079,1.77416795 Z" id="Rectangle"></path>
            <path d="M14.9232786,15.2520432 C13.3195765,15.2520432 12.0742023,14.2825609 12.0742023,12.9760216 C12.0742023,11.7103585 13.4332478,10.7 14.9232786,10.7 C16.389388,10.7 17.7357667,11.7348762 17.7357667,12.9760216 C17.7357667,14.2598109 16.5041008,15.2520432 14.9232786,15.2520432 Z M14.9232786,14.6520432 C16.197814,14.6520432 17.1357667,13.8964268 17.1357667,12.9760216 C17.1357667,12.1058466 16.0873566,11.3 14.9232786,11.3 C13.732553,11.3 12.6742023,12.0868122 12.6742023,12.9760216 C12.6742023,13.9136598 13.6227122,14.6520432 14.9232786,14.6520432 Z" id="Oval"></path>
            <polygon id="Path-5" points="5.36632784 6.86676632 5.33365085 14.929921 5.93364592 14.9323526 5.96632291 6.86919788"></polygon>
            <polygon id="Path-5" points="17.0718186 5.13583385 17.1449625 13.1543844 17.7449375 13.1489115 17.6717936 5.13036098"></polygon>
        </g>
    </g>
</svg>