<?xml version="1.0" encoding="UTF-8"?>
<svg width="18px" height="18px" viewBox="0 0 18 18" version="1.1" xmlns="http://www.w3.org/2000/svg" xmlns:xlink="http://www.w3.org/1999/xlink">
    <!-- Generator: Sketch 47.1 (45422) - http://www.bohemiancoding.com/sketch -->
    <title>uEA30-bulk-edit</title>
    <desc>Created with Sketch.</desc>
    <defs></defs>
    <g id="Symbols" stroke="none" stroke-width="1" fill="none" fill-rule="evenodd">
        <g id="uEA30-bulk-edit" transform="translate(-3.000000, 0.000000)" fill-rule="nonzero">
            <g transform="translate(4.000000, 0.000000)">
                <g id="Group" transform="translate(5.000000, 0.000000)" fill="#000000">
                    <path d="M9.04173045,0.00180618563 C8.97619813,0.00889236209 8.9149764,0.0378966615 8.86798059,0.084121618 L0.820618707,8.13274167 C0.779484845,8.1724361 0.750873362,8.22330891 0.738316142,8.27908021 L0.00673778848,11.6448668 C-0.0146622914,11.7429229 0.0156609416,11.8451078 0.0870807608,11.9156112 C0.15850058,11.9861145 0.261057218,12.0151041 0.358809871,11.9924208 L3.7240703,11.2607281 C3.7776789,11.248638 3.82680086,11.221696 3.8658136,11.1829857 L11.9131755,3.13436569 C11.9687363,3.07938562 12,3.00446201 12,2.92629057 C12,2.84811914 11.9687363,2.77319553 11.9131755,2.71821545 L9.27949342,0.084121618 C9.21667795,0.0222711656 9.12933506,-0.00796763941 9.04173045,0.00180618563 Z M9.07373701,0.70606044 L11.2959063,2.92857711 L10.4637359,3.75630452 L8.24156663,1.53836092 L9.07373701,0.70606044 Z M7.83005381,1.94993808 L10.0522231,4.17245476 L3.73321503,10.4878776 L1.51104578,8.26993406 L7.83005381,1.94993808 Z M1.22755917,8.80955745 L3.19367599,10.7759817 L0.678875401,11.3247512 L1.22755917,8.80955745 Z" id="Shape"></path>
                </g>
                <path d="M0.3,16.7 L0.3,5.3 L7.06762112,5.3 L7.06762112,4.7 L0,4.7 C-0.165685425,4.7 -0.3,4.83431458 -0.3,5 L-0.3,17 C-0.3,17.1656854 -0.165685425,17.3 0,17.3 L12,17.3 C12.1656854,17.3 12.3,17.1656854 12.3,17 L12.3,9.81971571 L11.7,9.81971571 L11.7,16.7 L0.3,16.7 Z" id="Rectangle" fill="#20232C"></path>
            </g>
        </g>
    </g>
</svg>