<?xml version="1.0" encoding="UTF-8"?>
<svg width="12px" height="12px" viewBox="0 0 12 12" version="1.1" xmlns="http://www.w3.org/2000/svg" xmlns:xlink="http://www.w3.org/1999/xlink">
    <!-- Generator: Sketch 47.1 (45422) - http://www.bohemiancoding.com/sketch -->
    <title>uEA38-user</title>
    <desc>Created with Sketch.</desc>
    <defs></defs>
    <g id="Symbols" stroke="none" stroke-width="1" fill="none" fill-rule="evenodd">
        <g id="uEA38-user" fill-rule="nonzero" fill="#000000">
            <path d="M6,0 C9.30049311,0 12,2.69950689 12,6 C12,9.30049311 9.30049311,12 6,12 C2.69950689,12 0,9.30049311 0,6 C0,2.69950689 2.69950689,0 6,0 Z M6,0.431654688 C2.93790319,0.431654688 0.431654688,2.93790319 0.431654688,6 C0.431654688,9.06209681 2.93790319,11.5683453 6,11.5683453 C9.06209681,11.5683453 11.5683453,9.06209681 11.5683453,6 C11.5683453,2.93790319 9.06209681,0.431654688 6,0.431654688 Z M6,2.16690648 C5.1358888,2.16690648 4.48057555,2.82221974 4.48057555,3.68633094 C4.48057555,4.55044214 5.1358888,5.20575539 6,5.20575539 C6.8641112,5.20575539 7.51942445,4.55044214 7.51942445,3.68633094 C7.51942445,2.82221974 6.8641112,2.16690648 6,2.16690648 Z M6,1.7352518 C7.1025075,1.7352518 7.95107914,2.58382344 7.95107914,3.68633094 C7.95107914,4.78883844 7.1025075,5.63741008 6,5.63741008 C4.8974925,5.63741008 4.04892086,4.78883844 4.04892086,3.68633094 C4.04892086,2.58382344 4.8974925,1.7352518 6,1.7352518 Z M6,9.94877697 C7.30033508,9.94877697 8.50565587,9.3003823 9.25116072,8.25091507 C9.16242616,7.4566235 7.41147685,6.73640288 6,6.73640288 C4.58852315,6.73640288 2.83757384,7.4566235 2.74883928,8.25091507 C3.49434413,9.3003823 4.69966492,9.94877697 6,9.94877697 Z M6,10.3804317 C4.53018241,10.3804317 3.1721816,9.63518731 2.35137253,8.43554329 L2.31366906,8.38043822 L2.31366906,8.31366906 C2.31366906,7.15418136 4.33612898,6.30474819 6,6.30474819 C7.66387102,6.30474819 9.68633094,7.15418136 9.68633094,8.31366906 L9.68633094,8.38043822 L9.64862747,8.43554329 C8.8278184,9.63518731 7.46981759,10.3804317 6,10.3804317 Z" id="uEA01-user"></path>
        </g>
    </g>
</svg>