<?xml version="1.0" encoding="UTF-8"?>
<svg width="16px" height="14px" viewBox="0 0 16 14" version="1.1" xmlns="http://www.w3.org/2000/svg" xmlns:xlink="http://www.w3.org/1999/xlink">
    <!-- Generator: Sketch 47.1 (45422) - http://www.bohemiancoding.com/sketch -->
    <title>uEA35-bullhorn-fill</title>
    <desc>Created with Sketch.</desc>
    <defs></defs>
    <g id="Symbols" stroke="none" stroke-width="1" fill="none" fill-rule="evenodd">
        <g id="uEA35-bullhorn-fill" fill-rule="nonzero" fill="#000000">
            <path d="M0.888188976,5.20702477 L2.22677165,5.20702477 L2.22677165,8.44167044 L0.888188976,8.44167044 L0.888188976,5.20702477 Z M4.73385827,11.5188358 C3.88976378,11.2826153 3.33858268,10.5109618 3.33858268,9.6731665 L6.51023622,11.1062374 C6.03149606,11.525135 5.36062992,11.6952137 4.73385827,11.5188358 Z M12.223622,12.7156862 L3.11496063,8.59600114 L3.11496063,5.04954445 L12.223622,0.929859412 C12.5165354,0.797575947 12.8503937,1.01174918 12.8503937,1.33615862 L12.8503937,12.309387 C12.8535433,12.6337964 12.519685,12.8479696 12.223622,12.7156862 Z M13.7417323,8.52670981 L13.7417323,5.11883579 C14.5228346,5.29206414 15.111811,5.98812713 15.111811,6.8227728 C15.111811,7.65741847 14.5228346,8.35348146 13.7417323,8.52670981 Z" id="Shape"></path>
        </g>
    </g>
</svg>