<?xml version="1.0" encoding="UTF-8"?>
<svg width="20px" height="16px" viewBox="0 0 20 16" version="1.1" xmlns="http://www.w3.org/2000/svg" xmlns:xlink="http://www.w3.org/1999/xlink">
    <!-- Generator: Sketch 47.1 (45422) - http://www.bohemiancoding.com/sketch -->
    <title>uEA32-type-video-fill</title>
    <desc>Created with Sketch.</desc>
    <defs></defs>
    <g id="Symbols" stroke="none" stroke-width="1" fill="none" fill-rule="evenodd">
        <g id="uEA32-type-video-fill" fill="#000000">
            <path d="M1.04297531,2.47845295 L14.0091737,2.38707576 L14.0091737,2.38707576 C14.2853092,2.38512974 14.5107388,2.60740425 14.5126849,2.88353977 C14.5126931,2.88471428 14.5126973,2.88588881 14.5126973,2.88706335 L14.5126973,12.9935997 L14.5126973,12.9935997 C14.5126973,13.2697421 14.2888397,13.4935997 14.0126973,13.4935997 L0.975343554,13.4935997 L0.975343554,13.4935997 C0.699201179,13.4935997 0.475343554,13.2697421 0.475343554,12.9935997 C0.475343554,12.9924156 0.47534776,12.9912315 0.475356173,12.9900474 L0.546511516,2.97488825 L0.546511516,2.97488825 C0.548453789,2.70151206 0.76959902,2.48037953 1.04297531,2.47845295 Z" id="Rectangle-4"></path>
            <path d="M15.1245564,6.32434823 L19.045373,3.53086003 L19.045373,3.53086003 C19.1353324,3.46676607 19.2602174,3.48773419 19.3243113,3.57769364 C19.3484518,3.61157612 19.3614253,3.65214333 19.3614253,3.69374602 L19.3614253,12.1723391 L19.3614253,12.1723391 C19.3614253,12.2827961 19.2718823,12.3723391 19.1614253,12.3723391 C19.1204531,12.3723391 19.0804694,12.3597554 19.0468823,12.33629 L15.0406088,9.53733757 L15.0406088,6.48723422 L15.0406088,6.48723422 C15.0406088,6.42255935 15.0718833,6.36187659 15.1245564,6.32434823 Z" id="Path-9"></path>
        </g>
    </g>
</svg>