<?xml version="1.0" encoding="UTF-8"?>
<svg width="18px" height="17px" viewBox="0 0 18 17" version="1.1" xmlns="http://www.w3.org/2000/svg" xmlns:xlink="http://www.w3.org/1999/xlink">
    <!-- Generator: Sketch 47.1 (45422) - http://www.bohemiancoding.com/sketch -->
    <title>uEA34-type-audio-fill</title>
    <desc>Created with Sketch.</desc>
    <defs></defs>
    <g id="Symbols" stroke="none" stroke-width="1" fill="none" fill-rule="evenodd">
        <g id="uEA34-type-audio-fill" fill-rule="nonzero" fill="#000000">
            <path d="M3.15096738,16.7804191 C1.54726526,16.7804191 0.301891032,15.8109367 0.301891032,14.5043975 C0.301891032,13.2387344 1.66093652,12.2283758 3.15096738,12.2283758 C4.61707676,12.2283758 5.96345545,13.2632521 5.96345545,14.5043975 C5.96345545,15.7881868 4.73178951,16.7804191 3.15096738,16.7804191 Z" id="Oval"></path>
            <path d="M5.722625,1.78731759 L17.1099397,0.362621459 C17.3839566,0.328426139 17.633812,0.522839987 17.6680074,0.796856941 C17.6705705,0.817396092 17.6718558,0.838074583 17.6718558,0.858773045 L17.6718558,5.56135429 L5.2845411,7.15652411 L5.2845411,2.28346917 C5.2845411,2.03126865 5.47236562,1.81854813 5.722625,1.78731759 Z" id="Rectangle"></path>
            <path d="M14.9232786,15.2520432 C13.3195765,15.2520432 12.0742023,14.2825609 12.0742023,12.9760216 C12.0742023,11.7103585 13.4332478,10.7 14.9232786,10.7 C16.389388,10.7 17.7357667,11.7348762 17.7357667,12.9760216 C17.7357667,14.2598109 16.5041008,15.2520432 14.9232786,15.2520432 Z" id="Oval"></path>
            <polygon id="Path-5" points="5.28228912 6.86919788 5.28228912 14.5468813 5.96632291 14.5468813 5.96632291 6.86919788"></polygon>
            <polygon id="Path-5" points="16.9426355 5.13036098 17.0157794 13.1489115 17.7449375 13.1489115 17.6717936 5.13036098"></polygon>
        </g>
    </g>
</svg>