<?xml version="1.0" encoding="UTF-8"?>
<svg width="20px" height="16px" viewBox="0 0 20 16" version="1.1" xmlns="http://www.w3.org/2000/svg" xmlns:xlink="http://www.w3.org/1999/xlink">
    <!-- Generator: Sketch 47.1 (45422) - http://www.bohemiancoding.com/sketch -->
    <title>uEA33-type-image-fill</title>
    <desc>Created with Sketch.</desc>
    <defs></defs>
    <g id="Symbols" stroke="none" stroke-width="1" fill="none" fill-rule="evenodd">
        <g id="uEA33-type-image-fill" fill-rule="nonzero" fill="#20232C">
            <path d="M3.03108755,0.658580746 L17.0370939,0.658580746 C18.1759195,0.658580746 19.0788795,1.55707364 19.0788795,2.69024086 L19.0788795,8.30664045 L16.8852107,6.12399065 C16.3536198,5.59508001 15.6618071,5.33479404 14.9696965,5.33479404 C14.2862225,5.33479404 13.5860711,5.59508001 13.0628188,6.12399065 L9.02153656,10.1453197 L6.13605506,7.28276952 C5.60446413,6.76219757 4.91294921,6.49357291 4.22083867,6.49357291 C3.52872813,6.49357291 2.8455519,6.76219757 2.31396097,7.28276952 L0.980665409,8.60921545 L0.980665409,2.69024086 C0.980665409,1.55677583 1.89196414,0.658580746 3.03108755,0.658580746 L3.03108755,0.658580746 Z M8.97090885,2.75754593 C7.84876061,2.75754593 6.93746188,3.66437751 6.93746188,4.77252867 C6.93746188,5.88931633 7.84905842,6.7958501 8.97090885,6.7958501 C10.0844206,6.7958501 10.9960171,5.88931633 10.9960171,4.77252867 C10.9960171,3.6640797 10.0847184,2.75754593 8.97090885,2.75754593 L8.97090885,2.75754593 Z M15.0247293,6.11761022 C15.5986092,6.11761022 16.1177543,6.28675021 16.547792,6.72333973 L19.0708386,9.23358058 L19.0708386,13.3104448 C19.0708386,13.873008 18.8513526,14.3849434 18.4802813,14.7548235 C18.1089122,15.1241079 17.6029329,15.3424027 17.0373917,15.3507414 L14.2445291,15.3507414 L14.1432737,15.2500816 L9.5322554,10.5910261 L13.4469317,6.75581714 C13.8856059,6.3275663 14.3701969,6.09733264 14.9357382,6.09733264 L15.0247293,6.11761022 Z M5.80867085,7.87760284 L8.79679705,10.8121532 C8.79679705,10.8121532 10.2947709,12.3249167 13.2907186,15.3504436 L3.03108755,15.3504436 C2.95514599,15.3504436 2.88784092,15.3421049 2.82023804,15.3421049 C2.74429648,15.3337662 2.6766936,15.3170889 2.60909072,15.3001137 C2.54148784,15.291775 2.48252145,15.2747998 2.42355507,15.2581225 C2.3476135,15.2411473 2.29728361,15.2158334 2.23801941,15.1908174 C2.17071434,15.1655035 2.10311146,15.1321488 2.04414507,15.0981985 C1.98517868,15.0731824 1.93425317,15.0308934 1.88362546,14.9975387 C1.82465907,14.9638861 1.77403136,14.9302336 1.73204015,14.8882424 C1.67307376,14.8462512 1.62244605,14.7959213 1.58045483,14.7542279 C1.20908571,14.3846456 0.981261029,13.8724123 0.981261029,13.3098492 L0.991295603,9.53074639 L2.66171213,7.87670941 C3.10008852,7.44101332 3.66562979,7.22301637 4.23087325,7.22301637 C4.7958189,7.22301637 5.36969885,7.44101332 5.80867085,7.87760284 Z" id="Shape"></path>
        </g>
    </g>
</svg>