<?xml version="1.0" encoding="UTF-8"?>
<svg width="16px" height="14px" viewBox="0 0 16 14" version="1.1" xmlns="http://www.w3.org/2000/svg" xmlns:xlink="http://www.w3.org/1999/xlink">
    <!-- Generator: Sketch 47.1 (45422) - http://www.bohemiancoding.com/sketch -->
    <title>uEA40-list-view</title>
    <desc>Created with Sketch.</desc>
    <defs></defs>
    <g id="Symbols" stroke="none" stroke-width="1" fill="none" fill-rule="evenodd">
        <g id="uEA40-list-view" transform="translate(0.000000, -1.000000)" fill="#20232C" fill-rule="nonzero">
            <path d="M5.75,3.25 L5.75,2.75 L15.25,2.75 L15.25,3.25 L5.75,3.25 Z M5.75116423,8.44743454 L5.75116423,7.94743454 L15.2511642,7.94743454 L15.2511642,8.44743454 L5.75116423,8.44743454 Z M5.76152096,13.5404567 L5.76152096,13.0404567 L15.261521,13.0404567 L15.261521,13.5404567 L5.76152096,13.5404567 Z M1.5,1.75 L2.94169096,1.75 C3.35590452,1.75 3.69169096,2.08578644 3.69169096,2.5 L3.69169096,4 C3.69169096,4.41421356 3.35590452,4.75 2.94169096,4.75 L1.5,4.75 C1.08578644,4.75 0.75,4.41421356 0.75,4 L0.75,2.5 C0.75,2.08578644 1.08578644,1.75 1.5,1.75 Z M1.5,6.75 L2.94169096,6.75 C3.35590452,6.75 3.69169096,7.08578644 3.69169096,7.5 L3.69169096,9 C3.69169096,9.41421356 3.35590452,9.75 2.94169096,9.75 L1.5,9.75 C1.08578644,9.75 0.75,9.41421356 0.75,9 L0.75,7.5 C0.75,7.08578644 1.08578644,6.75 1.5,6.75 Z M1.5,11.75 L2.94169096,11.75 C3.35590452,11.75 3.69169096,12.0857864 3.69169096,12.5 L3.69169096,14 C3.69169096,14.4142136 3.35590452,14.75 2.94169096,14.75 L1.5,14.75 C1.08578644,14.75 0.75,14.4142136 0.75,14 L0.75,12.5 C0.75,12.0857864 1.08578644,11.75 1.5,11.75 Z M1.5,2.25 C1.36192881,2.25 1.25,2.36192881 1.25,2.5 L1.25,4 C1.25,4.13807119 1.36192881,4.25 1.5,4.25 L2.94169096,4.25 C3.07976215,4.25 3.19169096,4.13807119 3.19169096,4 L3.19169096,2.5 C3.19169096,2.36192881 3.07976215,2.25 2.94169096,2.25 L1.5,2.25 Z M1.5,7.25 C1.36192881,7.25 1.25,7.36192881 1.25,7.5 L1.25,9 C1.25,9.13807119 1.36192881,9.25 1.5,9.25 L2.94169096,9.25 C3.07976215,9.25 3.19169096,9.13807119 3.19169096,9 L3.19169096,7.5 C3.19169096,7.36192881 3.07976215,7.25 2.94169096,7.25 L1.5,7.25 Z M1.5,12.25 C1.36192881,12.25 1.25,12.3619288 1.25,12.5 L1.25,14 C1.25,14.1380712 1.36192881,14.25 1.5,14.25 L2.94169096,14.25 C3.07976215,14.25 3.19169096,14.1380712 3.19169096,14 L3.19169096,12.5 C3.19169096,12.3619288 3.07976215,12.25 2.94169096,12.25 L1.5,12.25 Z"></path>
        </g>
    </g>
</svg>