<?xml version="1.0" encoding="UTF-8"?>
<svg width="23px" height="23px" viewBox="0 0 23 23" version="1.1" xmlns="http://www.w3.org/2000/svg" xmlns:xlink="http://www.w3.org/1999/xlink">
    <!-- Generator: Sketch 47.1 (45422) - http://www.bohemiancoding.com/sketch -->
    <title>uEA48-statuses</title>
    <desc>Created with Sketch.</desc>
    <defs></defs>
    <g id="Symbols" stroke="none" stroke-width="1" fill="none" fill-rule="evenodd">
        <g id="uEA48-statuses" fill-rule="nonzero" fill="#20232C">
            <g id="Group" transform="translate(0.000000, 4.000000)">
                <path d="M7.44870212,14.3998133 C3.66155039,14.3722383 0.6,11.2936509 0.6,7.5 C0.6,3.70634914 3.66155039,0.627761695 7.44870212,0.600186702 C6.98486187,0.873123525 6.55096582,1.19149753 6.15313164,1.54919106 C3.43225099,2.16238882 1.4,4.59386559 1.4,7.5 C1.4,10.4061344 3.43225099,12.8376112 6.15313164,13.4508089 C6.55096582,13.8085025 6.98486187,14.1268765 7.44870212,14.3998133 Z" id="Combined-Shape"></path>
                <path d="M11.4487021,14.3998133 C7.66155039,14.3722383 4.6,11.2936509 4.6,7.5 C4.6,3.70634914 7.66155039,0.627761695 11.4487021,0.600186702 C10.9848619,0.873123525 10.5509658,1.19149753 10.1531316,1.54919106 C7.43225099,2.16238882 5.4,4.59386559 5.4,7.5 C5.4,10.4061344 7.43225099,12.8376112 10.1531316,13.4508089 C10.5509658,13.8085025 10.9848619,14.1268765 11.4487021,14.3998133 Z" id="Combined-Shape"></path>
                <path d="M15.5,14.4 C11.6892352,14.4 8.6,11.3107648 8.6,7.5 C8.6,3.68923523 11.6892352,0.6 15.5,0.6 C19.3107648,0.6 22.4,3.68923523 22.4,7.5 C22.4,11.3107648 19.3107648,14.4 15.5,14.4 Z M15.5,13.6 C18.868937,13.6 21.6,10.868937 21.6,7.5 C21.6,4.13106303 18.868937,1.4 15.5,1.4 C12.131063,1.4 9.4,4.13106303 9.4,7.5 C9.4,10.868937 12.131063,13.6 15.5,13.6 Z" id="Oval-3"></path>
            </g>
        </g>
    </g>
</svg>