<?xml version="1.0" encoding="UTF-8"?>
<svg width="18px" height="18px" viewBox="0 0 18 18" version="1.1" xmlns="http://www.w3.org/2000/svg" xmlns:xlink="http://www.w3.org/1999/xlink">
    <!-- Generator: Sketch 47.1 (45422) - http://www.bohemiancoding.com/sketch -->
    <title>uEA44-save</title>
    <desc>Created with Sketch.</desc>
    <defs></defs>
    <g id="Symbols" stroke="none" stroke-width="1" fill="none" fill-rule="evenodd">
        <g id="uEA44-save" transform="translate(-2.000000, 0.000000)" fill="#20232C" fill-rule="nonzero">
            <path d="M18.9642005,6.15454951 L15.66875,2.8125 L13.4875,2.8125 L13.375,2.7 L13.375,1.85625 L13.4875,1.74375 L15.8375,1.74375 C15.9622969,1.74375 16.0870228,1.79364038 16.2264245,1.88920049 L19.8686057,5.53447123 C19.9501096,5.65672716 20,5.78145313 20,5.90625 L20,17.465625 C20,17.752757 19.752757,18 19.465625,18 L3.434375,18 C3.14724297,18 2.9,17.752757 2.9,17.465625 L2.9,2.278125 C2.9,1.99099297 3.14724297,1.74375 3.434375,1.74375 L5.7,1.74375 L5.8125,1.85625 L5.8125,2.7 L5.7,2.8125 L3.96875,2.8125 L3.96875,16.93125 L18.9315904,16.93125 L18.9642005,6.15454951 Z M5.15,5.878125 L5.15,0.69001867 C5.15,0.402886636 5.39724297,0.15564367 5.684375,0.15564367 L13.503125,0.15564367 C13.790257,0.15564367 14.0375,0.402886636 14.0375,0.69001867 L14.0375,5.878125 C14.0375,6.16525703 13.790257,6.4125 13.503125,6.4125 L5.684375,6.4125 C5.37750525,6.4125 5.15,6.17416116 5.15,5.878125 Z M6.21875,5.34375 L12.96875,5.34375 L12.96875,1.22439367 L6.21875,1.22439367 L6.21875,5.34375 Z M14.9375,11.728125 C14.9375,13.646507 13.368382,15.215625 11.45,15.215625 C9.53161797,15.215625 7.9625,13.646507 7.9625,11.728125 C7.9625,9.80974297 9.53161797,8.240625 11.45,8.240625 C13.368382,8.240625 14.9375,9.80974297 14.9375,11.728125 Z M13.86875,11.728125 C13.86875,10.384007 12.794118,9.309375 11.45,9.309375 C10.105882,9.309375 9.03125,10.384007 9.03125,11.728125 C9.03125,13.072243 10.105882,14.146875 11.45,14.146875 C12.794118,14.146875 13.86875,13.072243 13.86875,11.728125 Z"></path>
        </g>
    </g>
</svg>