<?xml version="1.0" encoding="UTF-8"?>
<svg width="18px" height="18px" viewBox="0 0 18 18" version="1.1" xmlns="http://www.w3.org/2000/svg" xmlns:xlink="http://www.w3.org/1999/xlink">
    <!-- Generator: Sketch 47.1 (45422) - http://www.bohemiancoding.com/sketch -->
    <title>uEA44-save</title>
    <desc>Created with Sketch.</desc>
    <defs></defs>
    <g id="Symbols" stroke="none" stroke-width="1" fill="none" fill-rule="evenodd">
        <g id="uEA44-save" transform="translate(-2.000000, 0.000000)" fill="#000000" fill-rule="nonzero">
            <g transform="translate(2.000000, 0.000000)">
                <path d="M2.88875929,0.662176818 L15.8270504,0.662176818 C16.9539074,0.662176818 17.8753099,1.58357916 17.8753099,2.71043631 L17.8753099,15.6487275 C17.8753099,16.7755903 16.9539103,17.6969869 15.8270504,17.6969869 L2.88875929,17.6969869 C1.76189947,17.6969869 0.840499799,16.7755903 0.840499799,15.6487275 L0.840499799,2.71043631 C0.840499799,1.58357916 1.76190236,0.662176818 2.88875929,0.662176818 Z M4.0683479,1.77293631 L2.88875929,1.77293631 C2.36194543,1.77293631 1.95125929,2.18362222 1.95125929,2.71043631 L1.95125929,15.6487275 C1.95125929,16.1755347 2.36194937,16.5862275 2.88875929,16.5862275 L10.5240442,16.5862275 L10.5240453,14.129488 C10.5227691,13.8335163 10.7502221,13.5994234 11.0794239,13.5735692 L14.0920946,13.5735692 C14.3988027,13.5735999 14.6474312,13.8222283 14.6474618,14.128949 L14.6474618,16.5862275 L15.8270504,16.5862275 C16.3538604,16.5862275 16.7645504,16.1755347 16.7645504,15.6487275 L16.7645504,2.71043631 C16.7645504,2.18362222 16.3538643,1.77293631 15.8270504,1.77293631 L14.6474618,1.77293631 L14.6474618,8.53402475 C14.6474312,8.84073292 14.3988027,9.08936137 14.0920821,9.08939201 L4.62371516,9.08939201 C4.31700698,9.08936137 4.06837854,8.84073292 4.0683479,8.53401226 L4.0683479,1.77293631 Z M11.5098036,14.4343287 L11.3848036,14.5593287 L11.3848036,16.7112275 L11.5098036,16.8362275 L13.6617023,16.8362275 L13.7867023,16.7112275 L13.7867023,14.5593287 L13.6617023,14.4343287 L11.5098036,14.4343287 Z M5.17910739,1.77293631 L5.17910739,7.97863251 L13.5367023,7.97863251 L13.5367023,1.77293631 L5.17910739,1.77293631 Z"></path>
            </g>
        </g>
    </g>
</svg>