<?xml version="1.0" encoding="UTF-8"?>
<svg width="17px" height="15px" viewBox="0 0 17 15" version="1.1" xmlns="http://www.w3.org/2000/svg" xmlns:xlink="http://www.w3.org/1999/xlink">
    <!-- Generator: Sketch 47.1 (45422) - http://www.bohemiancoding.com/sketch -->
    <title>uEA49-cloud</title>
    <desc>Created with Sketch.</desc>
    <defs></defs>
    <g id="Symbols" stroke="none" stroke-width="1" fill="none" fill-rule="evenodd">
        <g id="uEA49-cloud" transform="translate(-3.000000, -4.000000)" fill-rule="nonzero" fill="#000000">
            <g transform="translate(3.000000, 4.000000)" id="Shape">
                <path d="M17.0183675,8.03652743 C17.0183675,9.90566734 15.4763899,11.4384665 13.5885855,11.4384665 L10.7207618,11.4384665 C10.4432471,11.4384665 10.2423323,11.2375517 10.2423323,10.960037 C10.2423323,10.6825224 10.4432471,10.4816075 10.7207618,10.4816075 L13.5607425,10.4816075 C14.9259619,10.4816075 16.0336656,9.3739038 16.0336656,8.00868448 C16.0336656,6.64346515 14.9259619,5.53576141 13.5607425,5.53576141 L13.0754615,5.53576141 L13.0556933,5.35784772 L13.0281341,5.10968019 C12.7632013,2.96372471 10.9352965,1.35931913 8.77175537,1.35931913 C7.06904448,1.35931913 5.52595558,2.37056671 4.82988442,3.94952786 L4.74635557,4.11658555 L4.56747014,4.22714283 L4.2611977,4.22714283 C2.53402005,4.22714283 1.14788682,5.61327606 1.14788682,7.34045371 C1.14788682,9.06763137 2.56186299,10.4816075 4.28904065,10.4816075 L6.57216243,10.4816075 C6.84967708,10.4816075 7.05059192,10.6825224 7.05059192,10.960037 C7.05059192,11.2375517 6.84967708,11.4384665 6.57216243,11.4384665 L4.28904065,11.4384665 C2.03467666,11.4384665 0.218870798,9.62266065 0.218870798,7.36829666 C0.218870798,5.18799735 1.96249853,3.39517172 4.13483059,3.30162015 C5.02465238,1.53923435 6.81751116,0.430303105 8.79959832,0.430303105 C11.2855862,0.430303105 13.4266477,2.1979051 13.9234528,4.6184347 C15.6599659,4.78491659 17.0183675,6.26352947 17.0183675,8.03652743 Z"></path>
                <path d="M11.3214364,9.31199827 C11.2266719,9.40676277 11.1201501,9.45410576 10.9851144,9.45410576 C10.8500786,9.45410576 10.7435569,9.40676277 10.6487924,9.31199827 L9.31963681,7.98284271 L9.31963681,14.4541717 C9.31963681,14.7316863 9.11872197,14.9326011 8.84120732,14.9326011 C8.56369268,14.9326011 8.36277784,14.7316863 8.36277784,14.4541717 L8.36277784,7.98284271 L7.03362228,9.31199827 C6.84414563,9.50147492 6.55045494,9.50147492 6.36097829,9.31199827 C6.17150163,9.12252162 6.17150163,8.82883093 6.36097829,8.63935428 L8.84204661,6.15828595 L11.3219062,8.66766763 C11.5144831,8.8607465 11.5143265,9.16984124 11.3214364,9.31199827 Z"></path>
            </g>
        </g>
    </g>
</svg>