<?xml version="1.0" encoding="UTF-8"?>
<svg width="14px" height="14px" viewBox="0 0 14 14" version="1.1" xmlns="http://www.w3.org/2000/svg" xmlns:xlink="http://www.w3.org/1999/xlink">
    <!-- Generator: Sketch 47.1 (45422) - http://www.bohemiancoding.com/sketch -->
    <title>uEA41-grid-view-fill</title>
    <desc>Created with Sketch.</desc>
    <defs></defs>
    <g id="Symbols" stroke="none" stroke-width="1" fill="none" fill-rule="evenodd">
        <g id="uEA41-grid-view-fill" transform="translate(-1.000000, -1.000000)" fill-rule="nonzero" fill="#20232C">
            <g transform="translate(1.000000, 1.000000)" id="Combined-Shape">
                <path d="M0.862495781,0.684689605 L4.88261227,0.684689605 C5.29682583,0.684689605 5.63261227,1.02047604 5.63261227,1.4346896 L5.63261227,5.57468947 C5.63261227,5.98890303 5.29682583,6.32468947 4.88261227,6.32468947 L0.862495781,6.32468947 C0.448282218,6.32468947 0.112495781,5.98890303 0.112495781,5.57468947 L0.112495781,1.4346896 C0.112495781,1.02047604 0.448282218,0.684689605 0.862495781,0.684689605 Z M1.013412,8.10901975 L5.03352849,8.10901975 C5.44774205,8.10901975 5.78352849,8.44480619 5.78352849,8.85901975 L5.78352849,12.9990196 C5.78352849,13.4132332 5.44774205,13.7490196 5.03352849,13.7490196 L1.013412,13.7490196 C0.599198442,13.7490196 0.263412004,13.4132332 0.263412004,12.9990196 L0.263412004,8.85901975 C0.263412004,8.44480619 0.599198442,8.10901975 1.013412,8.10901975 Z M8.5,0.75 L12.5201165,0.75 C12.9343301,0.75 13.2701165,1.08578644 13.2701165,1.5 L13.2701165,5.63999987 C13.2701165,6.05421343 12.9343301,6.38999987 12.5201165,6.38999987 L8.5,6.38999987 C8.08578644,6.38999987 7.75,6.05421343 7.75,5.63999987 L7.75,1.5 C7.75,1.08578644 8.08578644,0.75 8.5,0.75 Z M8.64149156,8.11209564 L12.661608,8.11209564 C13.0758216,8.11209564 13.411608,8.44788208 13.411608,8.86209564 L13.411608,13.0020955 C13.411608,13.4163091 13.0758216,13.7520955 12.661608,13.7520955 L8.64149156,13.7520955 C8.22727799,13.7520955 7.89149156,13.4163091 7.89149156,13.0020955 L7.89149156,8.86209564 C7.89149156,8.44788208 8.22727799,8.11209564 8.64149156,8.11209564 Z"></path>
            </g>
        </g>
    </g>
</svg>