<?xml version="1.0" encoding="UTF-8"?>
<svg width="21px" height="21px" viewBox="0 0 21 21" version="1.1" xmlns="http://www.w3.org/2000/svg" xmlns:xlink="http://www.w3.org/1999/xlink">
    <!-- Generator: Sketch 47.1 (45422) - http://www.bohemiancoding.com/sketch -->
    <title>uEA44-search</title>
    <desc>Created with Sketch.</desc>
    <defs></defs>
    <g id="Symbols" stroke="none" stroke-width="1" fill="none" fill-rule="evenodd">
        <g id="uEA44-search" transform="translate(-1.000000, -1.000000)" fill="#000000" fill-rule="nonzero">
            <path d="M12.6399419,13.637771 C11.4108145,14.6460927 9.83837974,15.2512594 8.12462069,15.2512594 C4.18980134,15.2512594 1,12.0610063 1,8.12562971 C1,4.19025309 4.18980134,1 8.12462069,1 C12.05944,1 15.2492414,4.19025309 15.2492414,8.12562971 C15.2492414,9.88047228 14.6149813,11.4871545 13.5632296,12.7288773 L22,21.07912 L21.0888227,22 L12.6399419,13.637771 Z M8.12462069,13.9556904 C11.3440183,13.9556904 13.9538558,11.3454833 13.9538558,8.12562971 C13.9538558,4.90577611 11.3440183,2.29556904 8.12462069,2.29556904 C4.90522304,2.29556904 2.29538558,4.90577611 2.29538558,8.12562971 C2.29538558,11.3454833 4.90522304,13.9556904 8.12462069,13.9556904 Z"></path>
        </g>
    </g>
</svg>