<?xml version="1.0" encoding="UTF-8"?>
<svg width="16px" height="17px" viewBox="0 0 16 17" version="1.1" xmlns="http://www.w3.org/2000/svg" xmlns:xlink="http://www.w3.org/1999/xlink">
    <!-- Generator: Sketch 47.1 (45422) - http://www.bohemiancoding.com/sketch -->
    <title>uEA43-launch</title>
    <desc>Created with Sketch.</desc>
    <defs></defs>
    <g id="Symbols" stroke="none" stroke-width="1" fill="none" fill-rule="evenodd">
        <g id="uEA43-launch" transform="translate(-3.000000, -1.000000)" fill-rule="nonzero" fill="#20232C">
            <g transform="translate(3.000000, 0.000000)">
                <path d="M1.3,16.7 L1.3,5.3 L8.06762112,5.3 L8.06762112,4.7 L1,4.7 C0.834314575,4.7 0.7,4.83431458 0.7,5 L0.7,17 C0.7,17.1656854 0.834314575,17.3 1,17.3 L13,17.3 C13.1656854,17.3 13.3,17.1656854 13.3,17 L13.3,9.81971571 L12.7,9.81971571 L12.7,16.7 L1.3,16.7 Z" id="Rectangle"></path>
                <polygon id="Path-2" points="15.1698142 6.6075698 15.7698142 6.6075698 15.7698142 1.47604105 10.4050205 1.47604105 10.4050205 2.07604105 15.1698142 2.07604105"></polygon>
                <polygon id="Path-2" points="7.72148925 10.7023426 15.6913034 1.97838361 15.2483249 1.5736985 7.27851075 10.2976574"></polygon>
            </g>
        </g>
    </g>
</svg>