<?xml version="1.0" encoding="UTF-8"?>
<svg width="21px" height="22px" viewBox="0 0 21 22" version="1.1" xmlns="http://www.w3.org/2000/svg" xmlns:xlink="http://www.w3.org/1999/xlink">
    <!-- Generator: Sketch 47.1 (45422) - http://www.bohemiancoding.com/sketch -->
    <title>uEA46-trash</title>
    <desc>Created with Sketch.</desc>
    <defs></defs>
    <g id="Symbols" stroke="none" stroke-width="1" fill="none" fill-rule="evenodd">
        <g id="uEA46-trash" transform="translate(-1.000000, -1.000000)" fill="#000000" fill-rule="nonzero">
            <path d="M21.2560976,4.16585366 L14.4414634,4.16585366 L14.4414634,1.13414634 L7.65365854,1.13414634 L7.65365854,4.16585366 L1.10731707,4.16585366 L1.10731707,4.72926829 L3.01219512,4.72926829 L4.40731707,22.8926829 L17.7146341,22.8926829 L19.1097561,4.72926829 L21.3097561,4.72926829 L21.3097561,4.16585366 L21.2560976,4.16585366 Z M8.21707317,1.67073171 L13.904878,1.67073171 L13.904878,4.13902439 L8.21707317,4.13902439 L8.21707317,1.67073171 Z M17.1780488,22.302439 L4.91707317,22.302439 L3.57560976,4.70243902 L7.65365854,4.70243902 L8.21707317,4.70243902 L13.904878,4.70243902 L14.4682927,4.70243902 L18.5463415,4.70243902 L17.1780488,22.302439 Z M10.7658537,8.13658537 L10.7658537,18.9487805 L11.3292683,18.9487805 L11.3292683,8.13658537 L10.7658537,8.13658537 Z M14.3867263,8.10212206 L13.7992449,18.9248879 L14.3618144,18.9554253 L14.9492959,8.13265946 L14.3867263,8.10212206 Z M7.69658191,8.10735057 L7.1340124,8.13781728 L7.72013395,18.9605831 L8.28270346,18.9301164 L7.69658191,8.10735057 Z"></path>
        </g>
    </g>
</svg>