<?xml version="1.0" encoding="UTF-8"?>
<svg width="16px" height="14px" viewBox="0 0 16 14" version="1.1" xmlns="http://www.w3.org/2000/svg" xmlns:xlink="http://www.w3.org/1999/xlink">
    <!-- Generator: Sketch 47.1 (45422) - http://www.bohemiancoding.com/sketch -->
    <title>uEA42-list-view-fill</title>
    <desc>Created with Sketch.</desc>
    <defs></defs>
    <g id="Symbols" stroke="none" stroke-width="1" fill="none" fill-rule="evenodd">
        <g id="uEA42-list-view-fill" transform="translate(0.000000, -1.000000)" fill="#20232C" fill-rule="nonzero">
            <path d="M5.5,3.5 L15.5,3.5 L15.5,2.5 L5.5,2.5 L5.5,3.5 Z M5.50116423,8.69743454 L5.50116423,7.69743454 L15.5011642,7.69743454 L15.5011642,8.69743454 L5.50116423,8.69743454 Z M10.5011642,8.19743454 L6.00116423,8.19743454 L10.5011642,8.19743454 Z M5.51152096,13.7904567 L5.51152096,12.7904567 L15.511521,12.7904567 L15.511521,13.7904567 L5.51152096,13.7904567 Z M1.5,1.75 L2.94169096,1.75 C3.35590452,1.75 3.69169096,2.08578644 3.69169096,2.5 L3.69169096,4 C3.69169096,4.41421356 3.35590452,4.75 2.94169096,4.75 L1.5,4.75 C1.08578644,4.75 0.75,4.41421356 0.75,4 L0.75,2.5 C0.75,2.08578644 1.08578644,1.75 1.5,1.75 Z M1.5,6.75 L2.94169096,6.75 C3.35590452,6.75 3.69169096,7.08578644 3.69169096,7.5 L3.69169096,9 C3.69169096,9.41421356 3.35590452,9.75 2.94169096,9.75 L1.5,9.75 C1.08578644,9.75 0.75,9.41421356 0.75,9 L0.75,7.5 C0.75,7.08578644 1.08578644,6.75 1.5,6.75 Z M1.5,11.75 L2.94169096,11.75 C3.35590452,11.75 3.69169096,12.0857864 3.69169096,12.5 L3.69169096,14 C3.69169096,14.4142136 3.35590452,14.75 2.94169096,14.75 L1.5,14.75 C1.08578644,14.75 0.75,14.4142136 0.75,14 L0.75,12.5 C0.75,12.0857864 1.08578644,11.75 1.5,11.75 Z"></path>
        </g>
    </g>
</svg>