<?xml version="1.0" encoding="UTF-8"?>
<svg width="19px" height="22px" viewBox="0 0 19 22" version="1.1" xmlns="http://www.w3.org/2000/svg" xmlns:xlink="http://www.w3.org/1999/xlink">
    <!-- Generator: Sketch 47.1 (45422) - http://www.bohemiancoding.com/sketch -->
    <title>uEA47-file-types</title>
    <desc>Created with Sketch.</desc>
    <defs></defs>
    <g id="Symbols" stroke="none" stroke-width="1" fill="none" fill-rule="evenodd">
        <g id="uEA47-file-types" fill="#000000" fill-rule="nonzero">
            <path d="M5.75,8.4516129 C6.6875,8.4516129 7.45454545,7.68951613 7.45454545,6.75806452 C7.45454545,5.8266129 6.6875,5.06451613 5.75,5.06451613 C4.8125,5.06451613 4.04545455,5.8266129 4.04545455,6.75806452 C4.04545455,7.68951613 4.8125,8.4516129 5.75,8.4516129 Z M5.75,5.74193548 C6.3125,5.74193548 6.77272727,6.19919355 6.77272727,6.75806452 C6.77272727,7.31693548 6.3125,7.77419355 5.75,7.77419355 C5.1875,7.77419355 4.72727273,7.31693548 4.72727273,6.75806452 C4.72727273,6.19919355 5.1875,5.74193548 5.75,5.74193548 Z M10.8125,7.53709677 C10.7102273,7.53709677 10.6079545,7.58790323 10.5397727,7.68951613 L8.15340909,11.1104839 L7.13068182,9.68790323 C7.0625,9.58629032 6.94318182,9.53548387 6.82386364,9.53548387 C6.72159091,9.53548387 6.61931818,9.58629032 6.55113636,9.68790323 L3.24431818,14.3282258 C3.07386364,14.5653226 3.24431818,14.8870968 3.53409091,14.8870968 L15.4659091,14.8870968 C15.7386364,14.8870968 15.9090909,14.5991935 15.7727273,14.3620968 L15.7556818,14.3282258 L11.1193182,7.68951613 C11.0511364,7.58790323 10.9318182,7.53709677 10.8125,7.53709677 Z M4.19886364,14.2096774 L6.84090909,10.5008065 L7.72727273,11.7370968 L6.00568182,14.2096774 L4.19886364,14.2096774 Z M6.85795455,14.2096774 L10.8295455,8.51935484 L14.8011364,14.2096774 L6.85795455,14.2096774 Z M12.9261364,1 L3.53409091,1 C2.68181818,1 2,1.67741935 2,2.52419355 L2,19.4758065 C2,20.3225806 2.68181818,21 3.53409091,21 L15.4659091,21 C16.3181818,21 17,20.3225806 17,19.4758065 L17,5.04758065 L12.9261364,1 Z M12.9090909,1.9483871 L16.0454545,5.06451613 L13.7613636,5.06451613 C13.2840909,5.06451613 12.9090909,4.69193548 12.9090909,4.21774194 L12.9090909,1.9483871 Z M16.3181818,19.3548387 C16.3181818,19.8967742 15.9431818,20.3225806 15.4659091,20.3225806 L3.53409091,20.3225806 C3.05681818,20.3225806 2.68181818,19.8967742 2.68181818,19.3548387 L2.68181818,15.9032258 L16.3181818,15.9032258 L16.3181818,19.3548387 Z M16.3181818,15.9032258 L2.68181818,15.9032258 L2.68181818,2.52419355 C2.68181818,2.05 3.05681818,1.67741935 3.53409091,1.67741935 L12.2272727,1.67741935 L12.2272727,4.21774194 C12.2272727,5.06451613 12.9090909,5.74193548 13.7613636,5.74193548 L16.3181818,5.74193548 L16.3181818,15.9032258 Z"></path>
        </g>
    </g>
</svg>