<?xml version="1.0" encoding="UTF-8"?>
<svg width="16px" height="16px" viewBox="0 0 16 16" version="1.1" xmlns="http://www.w3.org/2000/svg" xmlns:xlink="http://www.w3.org/1999/xlink">
    <!-- Generator: Sketch 47.1 (45422) - http://www.bohemiancoding.com/sketch -->
    <title>uEA50-shell</title>
    <desc>Created with Sketch.</desc>
    <defs></defs>
    <g id="Symbols" stroke="none" stroke-width="1" fill="none" fill-rule="evenodd">
        <g id="uEA50-shell" transform="translate(-3.000000, -4.000000)" fill-rule="nonzero" fill="#000000">
            <g transform="translate(3.000000, 4.000000)">
                <path d="M0.221691516,0.221691515 C0.38394687,0.0594361619 0.647014777,0.0594361619 0.809270131,0.221691516 L15.4783085,14.8907299 C15.6405638,15.0529852 15.6405638,15.3160531 15.4783085,15.4783085 C15.3160531,15.6405638 15.0529852,15.6405638 14.8907299,15.4783085 L0.221691516,0.809270131 C0.0594361619,0.647014777 0.0594361619,0.38394687 0.221691516,0.221691515 Z" id="not-applicable"></path>
                <path d="M3.26517277,3.78452237 C3.45568107,3.91242935 3.50642945,4.17055591 3.37852247,4.36106421 C2.77788991,5.25566336 2.45847694,6.30196306 2.45847694,7.38929963 C2.45847694,10.3937256 4.89404541,12.8292941 7.8984714,12.8292941 C9.00104633,12.8292941 10.0612903,12.5008233 10.9635872,11.8842679 C11.1530441,11.7548087 11.4115767,11.8034464 11.5410359,11.9929033 C11.6704951,12.1823602 11.6218574,12.4408928 11.4324005,12.570352 C10.3921867,13.2811485 9.16860913,13.6602557 7.8984714,13.6602557 C4.43511798,13.6602557 1.62751529,10.852653 1.62751529,7.38929963 C1.62751529,6.13672793 1.99617,4.92924306 2.68863095,3.89787207 C2.81653792,3.70736377 3.07466452,3.65661539 3.26517277,3.78452237 Z" id="not-applicable-path"></path>
                <path d="M12.1166498,11.4716102 C11.9409556,11.3240123 11.918179,11.0619323 12.0657769,10.886238 C12.8890405,9.90625986 13.3384659,8.67784836 13.3384659,7.38929963 C13.3384659,4.38487364 10.9028974,1.94930517 7.8984714,1.94930517 C6.6023278,1.94930517 5.36713185,2.40408067 4.38465082,3.23623481 C4.20955379,3.38454069 3.94738396,3.36282216 3.79907811,3.18772516 C3.65077222,3.01262816 3.67249072,2.7504583 3.84758774,2.6021524 C4.9798248,1.643156 6.40519232,1.11834353 7.8984714,1.11834353 C11.3618248,1.11834353 14.1694275,3.92594622 14.1694275,7.38929963 C14.1694275,8.8738232 13.6507852,10.2913697 12.702022,11.4207372 C12.5544241,11.5964314 12.2923441,11.6192081 12.1166498,11.4716102 Z" id="not-applicable-path"></path>
            </g>
        </g>
    </g>
</svg>