<svg viewBox="55 -3.8 170 66.8" xmlns="http://www.w3.org/2000/svg"><g fill="#fff"><path d="m123.3 8.3c-.5-.2-1.1.1-1.3.6-1.3 3.8-4.5 3.8-5.5 3.8-.3-2.4-1.3-4.6-3-6.3-1.6-1.6-3.7-2.6-5.9-2.9-.1-1.2.1-4.2 3.8-5.4.5-.2.8-.7.6-1.3-.2-.5-.7-.8-1.3-.6-4.3 1.4-5.2 4.9-5.1 7.2-2.6.1-5.1 1.1-7 3.1-1.6 1.6-2.6 3.6-2.9 5.8-3.8-1.2-8.2-1.3-12.6-.2-4.5-2.6-9.3-4.8-12.7-4.7-8.3.3-14.9 7.4-14.5 15.7.2 4.6 2.4 8.6 5.8 11.3-.2.9-.4 1.8-.7 2.8-1.8 7-4.2 16.4-.7 21.1l-2.5 2.4c-.4.4-.4 1 0 1.4.2.2.5.3.7.3s.5-.1.7-.3l2.5-2.5c1.9 1.5 4.6 2 7.5 2 5.4 0 11.8-1.9 16.7-3.4l1.2-.4c.3.4.7.8 1.1 1.1 2.8 2.6 6.4 4 10.3 4h.6c4-.2 7.8-1.9 10.5-4.9s4.2-6.8 4-10.9c-.1-2.2-1.2-5-3.2-8.4l-2.1-3.3c.8-4 .6-7.9-.5-11.3 2.2-.4 4.2-1.4 5.8-2.9 1.8-1.8 2.8-4.1 3-6.6h.5c2.3 0 5.5-1 6.9-5.2.1-.4-.1-.9-.7-1.1zm-65.4 14.7c-.3-7.2 5.4-13.4 12.6-13.7h.2c6.4 0 19.3 9.5 22.9 12.2-2.3 2.1-8.7 7.6-14.6 11.1-3.2 1.9-5.7 2.9-7.5 2.9-7.2.4-13.3-5.3-13.6-12.5zm25.8 22.2-8.4-8.4c1.4-.5 3-1.3 4.7-2.3.5-.3.9-.6 1.4-.9l5 5c-1.1 2.2-2.1 4.5-2.7 6.6zm3.8-8.5-4.3-4.3c1.9-1.3 3.7-2.6 5.4-4l2.5 2.5c-1.3 1.8-2.5 3.8-3.6 5.8zm-25.1 2.7 18.4 18.3c-2.6.7-5.3 1.4-8 1.7l-12-12c.4-2.7 1-5.5 1.6-8zm-.1 18.2c-1.6-1.6-2-4.4-1.8-7.6l9.7 9.7c-3.3.1-6.1-.4-7.9-2.1zm23-1.2c-.7.2-1.5.5-2.3.7v-.1l-20-19.9c.1-.5.3-1.1.4-1.6 2.2 1.3 4.8 2.1 7.6 2.1h.6c.5 0 1-.1 1.5-.2l10.1 10.1v1c.1 2.8 1 5.4 2.5 7.7zm26.3-9c.1 3.5-1.1 6.9-3.5 9.4-2.4 2.6-5.6 4.1-9.1 4.2s-6.9-1.1-9.4-3.5c-2.6-2.4-4.1-5.6-4.2-9.1-.3-6.3 9.5-19.5 12.2-23.1 2.1 2.3 7.6 8.7 11.1 14.6 1.8 3.2 2.8 5.7 2.9 7.5zm-13.4-24.3c-.2-.2-.5-.3-.8-.3s-.6.1-.7.4c-.2.3-2.1 2.7-4.5 6.1l-2-2c3.2-2.6 5.5-4.8 5.7-5s.3-.5.3-.8-.1-.6-.4-.7c-.4-.3-4.8-3.9-10.2-7.2 6.3-1 12.2.6 16.2 4.6 3.8 3.8 5.5 9.2 4.8 15.1-4-5.4-8.2-10-8.4-10.2zm13.9-3.2c-1.4 1.4-3.2 2.2-5.1 2.4-.9-2.1-2.2-4-3.8-5.6s-3.5-2.9-5.6-3.8c.2-2 1.1-3.7 2.4-5.1 3.3-3.3 8.7-3.3 12.1 0 1.6 1.6 2.5 3.8 2.5 6s-.9 4.5-2.5 6.1z"/><path d="m142.4 53.8v-35.3h10.3c3.7 0 6.5.8 8.6 2.3 2 1.5 3.1 3.9 3.1 7 0 1.8-.5 3.4-1.5 4.7s-2.4 2.3-4.2 2.8c2.1.4 3.9 1.4 5.2 3s2 3.5 2 5.6c0 3.2-1 5.6-3.1 7.3-2 1.7-4.8 2.5-8.2 2.5h-12.2zm2.9-19.5h8.1c2.6 0 4.5-.6 5.9-1.7s2.1-2.8 2.1-5-.7-3.9-2.2-5-3.7-1.7-6.5-1.7h-7.4zm0 2.5v14.5h9.3c2.6 0 4.6-.6 6.1-1.9s2.2-3.1 2.2-5.4c0-2.1-.7-3.8-2-5.2s-3.3-2-5.9-2zm47.8-.1h-17v14.6h19.5v2.5h-22.4v-35.3h22.2v2.5h-19.3v13.3h17zm28.6 0h-17v14.6h19.5v2.5h-22.4v-35.3h22.2v2.5h-19.3v13.3h17z"/></g></svg>