<svg viewBox="0 0 64 64" xmlns="http://www.w3.org/2000/svg"><path d="m62.2 13.2c-.5-.2-1 .1-1.2.5-1.2 3.4-4.1 3.4-5 3.4-.3-2.2-1.2-4.2-2.7-5.7-1.4-1.3-3.3-2.2-5.3-2.5-.1-1.1.1-3.8 3.4-4.9.5-.2.7-.6.5-1.2-.2-.5-.6-.7-1.2-.5-3.9 1.3-4.7 4.4-4.6 6.5-2.4.1-4.6 1-6.3 2.8-1.4 1.4-2.4 3.3-2.6 5.2-3.4-1.1-7.4-1.2-11.4-.2-4.1-2.4-8.4-4.3-11.5-4.3-7.4.4-13.4 6.8-13 14.3.2 4.2 2.2 7.8 5.2 10.2-.2.8-.4 1.6-.6 2.5-1.6 6.3-3.8 14.8-.6 19.1l-2.3 2.2c-.4.4-.4.9 0 1.3.2.2.5.3.6.3.2 0 .5-.1.6-.3l2.3-2.3c1.7 1.4 4.2 1.8 6.8 1.8 4.9 0 10.7-1.7 15.1-3.1l1.1-.4c.3.4.6.7 1 1 2.5 2.4 5.8 3.6 9.3 3.6h.5c3.6-.2 7.1-1.7 9.5-4.4s3.8-6.2 3.6-9.9c-.1-2-1.1-4.5-2.9-7.6-.6-1-1.3-2-1.9-3 .7-3.6.5-7.1-.5-10.2 2-.4 3.8-1.3 5.2-2.6 1.6-1.6 2.5-3.7 2.7-6h.5c2.1 0 5-.9 6.2-4.7.2-.2.1-.7-.5-.9zm-59.1 13.3c-.3-6.5 4.8-12.1 11.4-12.4h.2c5.8 0 17.5 8.6 20.7 11-2.1 1.9-7.9 6.9-13.2 10-2.9 1.7-5.2 2.6-6.8 2.6-6.6.5-12.1-4.7-12.3-11.2zm23.3 20.1-7.6-7.6c1.3-.5 2.7-1.2 4.3-2.1.5-.3.8-.5 1.3-.8l4.5 4.5c-1.1 2-2 4.1-2.5 6zm3.4-7.7-3.9-3.9c1.7-1.2 3.3-2.4 4.9-3.6l2.3 2.3c-1.2 1.6-2.3 3.4-3.3 5.2zm-22.7 2.5 16.6 16.6c-2.4.6-4.8 1.3-7.2 1.5l-10.8-10.9c.3-2.4.9-5 1.4-7.2zm-.1 16.4c-1.4-1.4-1.8-4-1.6-6.9l8.8 8.8c-3 .1-5.5-.3-7.2-1.9zm20.8-1.1c-.6.2-1.4.5-2.1.6v-.1l-18.1-18c.1-.5.3-1 .4-1.4 2 1.2 4.3 1.9 6.9 1.9h.5c.5 0 .9-.1 1.4-.2l9.1 9.1v.9c.1 2.5.9 4.9 2.3 7zm23.8-8.1c.1 3.2-1 6.2-3.2 8.5-2.2 2.4-5.1 3.7-8.2 3.8-3.2.1-6.2-1-8.5-3.2-2.4-2.2-3.7-5.1-3.8-8.2-.3-5.7 8.6-17.6 11-20.9 1.9 2.1 6.9 7.9 10 13.2 1.7 2.9 2.6 5.2 2.7 6.8zm-12.1-22c-.2-.2-.5-.3-.7-.3s-.5.1-.6.4c-.2.3-1.9 2.4-4.1 5.5l-1.8-1.8c2.9-2.4 5-4.3 5.2-4.5s.3-.5.3-.7-.1-.5-.4-.6c-.4-.3-4.4-3.6-9.3-6.6 5.7-.9 11 .5 14.7 4.2 3.4 3.4 5 8.3 4.3 13.7-3.6-4.9-7.4-9.1-7.6-9.3zm12.6-2.9c-1.3 1.3-2.9 2-4.6 2.2-.8-1.9-2-3.6-3.4-5.1-1.4-1.4-3.2-2.6-5.1-3.4.2-1.8 1-3.3 2.2-4.6 3-3 7.9-3 10.9 0 1.4 1.4 2.3 3.4 2.3 5.4s-.9 4.1-2.3 5.5z" fill="#fff"/></svg>