<svg height="132" viewBox="0 0 132 132" width="132" xmlns="http://www.w3.org/2000/svg"><path d="m116.4 69.5c0 27.5-22.3 49.7-49.8 49.7s-49.7-22.2-49.7-49.7 22.3-49.7 49.8-49.7 49.7 22.2 49.7 49.7z" fill="#ffab00"/><path d="m66.6 120.8c-28.3 0-51.3-23-51.3-51.2s23-51.2 51.3-51.2 51.3 23 51.3 51.2-23 51.2-51.3 51.2zm0-99.5c-26.6 0-48.3 21.6-48.3 48.2s21.6 48.2 48.3 48.2c26.6 0 48.3-21.6 48.3-48.2s-21.7-48.2-48.3-48.2z" fill="#37474f"/><path d="m83.5 120.6c0 5.1-4.2 8.9-9.3 8.9h-15.2c-5.2 0-9.5-3.7-9.5-8.9v-15.2c0-5.1 4.4-9.9 9.5-9.9h15.1c5.2 0 9.3 4.8 9.3 9.9v15.2z" fill="#fff"/><g fill="#37474f"><path d="m74.2 131h-15.2c-6.2 0-11-4.6-11-10.4v-15.2c0-6.1 5.2-11.4 11-11.4h15.1c5.9 0 10.9 5.2 10.9 11.4v15.2c0 5.8-4.8 10.4-10.8 10.4zm-15.2-34c-4.2 0-8 4-8 8.4v15.2c0 4.1 3.5 7.4 8 7.4h15.1c4.5 0 7.8-3.2 7.8-7.4v-15.2c0-4.5-3.7-8.4-7.8-8.4z"/><path d="m68.5 103.5v8h7v3h-7v8h-4v-8h-7v-3h7v-8z"/><path d="m68.5 124h-4c-.8 0-1.5-.7-1.5-1.5v-6.5h-5.5c-.8 0-1.5-.7-1.5-1.5v-3c0-.8.7-1.5 1.5-1.5h5.5v-6.5c0-.8.7-1.5 1.5-1.5h4c.8 0 1.5.7 1.5 1.5v6.5h5.5c.8 0 1.5.7 1.5 1.5v3c0 .8-.7 1.5-1.5 1.5h-5.5v6.5c0 .8-.7 1.5-1.5 1.5zm-2.5-3h1v-6.5c0-.8.7-1.5 1.5-1.5-.8 0-1.5-.7-1.5-1.5v-6.5h-1v6.5c0 .8-.7 1.5-1.5 1.5h-5.5 5.5c.8 0 1.5.7 1.5 1.5z"/></g><path d="m77.3 79.6c0 2.9-2.3 4.9-5.2 4.9h-11c-2.9 0-5.2-2-5.2-4.9l-5.3-71.7c0-2.9 2.3-5.4 5.3-5.4h21.4c2.9 0 5.2 2.5 5.2 5.4z" fill="#fff"/><path d="m72.1 86h-11c-3.8 0-6.7-2.7-6.7-6.4l-5.2-71.6v-.1c0-3.8 3-6.9 6.8-6.9h21.4c3.7 0 6.7 3.1 6.7 6.9v.1l-5.2 71.6c-.1 3.7-3 6.4-6.8 6.4zm-20-78.1 5.3 71.6v.1c0 2 1.6 3.4 3.7 3.4h10.9c2.2 0 3.7-1.4 3.7-3.4v-.1l5.2-71.6c.1-2.1-1.6-3.9-3.6-3.9h-21.4c-2 0-3.7 1.8-3.8 3.9z" fill="#37474f"/><g fill="#37474f"><path d="m66.6 30.3c-1.3 0-2.3-1-2.3-2.3s1-2.4 2.3-2.4c1.2 0 2.3 1 2.3 2.4 0 1.3-1 2.3-2.3 2.3z"/><path d="m66.6 30.8c-1.5 0-2.8-1.2-2.8-2.8s1.3-2.9 2.8-2.9 2.8 1.3 2.8 2.9-1.3 2.8-2.8 2.8zm0-4.6c-1 0-1.8.8-1.8 1.9 0 1 .8 1.8 1.8 1.8s1.8-.8 1.8-1.8-.8-1.9-1.8-1.9zm0 20.3c-1.3 0-2.3-1.1-2.3-2.3 0-1.3 1-2.3 2.3-2.3 1.2 0 2.3 1 2.3 2.3 0 1.2-1 2.3-2.3 2.3z"/><path d="m66.6 47c-1.5 0-2.8-1.3-2.8-2.8 0-1.6 1.3-2.8 2.8-2.8s2.8 1.3 2.8 2.8-1.3 2.8-2.8 2.8zm0-4.7c-1 0-1.8.8-1.8 1.8s.8 1.8 1.8 1.8 1.8-.8 1.8-1.8c0-.9-.8-1.8-1.8-1.8z"/><path d="m66.6 62.5c-1.3 0-2.3-1-2.3-2.2 0-1.3 1-2.4 2.3-2.4s2.3 1 2.3 2.4c0 1.2-1 2.2-2.3 2.2z"/><path d="m66.6 63c-1.5 0-2.8-1.3-2.8-2.7 0-1.6 1.2-2.9 2.8-2.9s2.8 1.3 2.8 2.9c0 1.5-1.3 2.7-2.8 2.7zm0-4.6c-1 0-1.8.8-1.8 1.9 0 .9.8 1.7 1.8 1.7s1.8-.8 1.8-1.7c0-1-.8-1.9-1.8-1.9z"/></g></svg>