<svg height="32" viewBox="0 0 32 32" width="32" xmlns="http://www.w3.org/2000/svg"><g clip-rule="evenodd" fill="#333" fill-rule="evenodd"><path d="m16 10.001a8 8 0 0 0 -8 8 8 8 0 1 0 16 0 8 8 0 0 0 -8-8zm4.555 11.905a5.998 5.998 0 0 1 -8.459.65 5.997 5.997 0 0 1 -.65-8.459 6 6 0 0 1 9.109 7.809z"/><path d="m16 14.001a4 4 0 0 0 -4 3.999v.002a.5.5 0 0 0 1 0v-.002a3 3 0 0 1 3-2.999.5.5 0 0 0 0-1z"/><path d="m29.492 9.042-4.334-.723-1.373-3.434a2.988 2.988 0 0 0 -2.785-1.885h-10a2.99 2.99 0 0 0 -2.786 1.886l-1.372 3.433-4.333.723a2.989 2.989 0 0 0 -2.509 2.958v15c0 1.654 1.346 3 3 3h26c1.654 0 3-1.346 3-3v-15a2.989 2.989 0 0 0 -2.508-2.958zm.508 17.958a1 1 0 0 1 -1 1h-26a1 1 0 0 1 -1-1v-15a1 1 0 0 1 .836-.986l5.444-.907 1.791-4.478c.153-.379.52-.629.929-.629h10c.408 0 .775.249.928.629l1.791 4.478 5.445.907a1 1 0 0 1 .836.986z"/></g></svg>