<svg xmlns="http://www.w3.org/2000/svg" width="128" height="128" viewBox="0 0 128 128"><path fill="#FFAB00" d="M38.5 62.5h-.4c-17.1 0-31 13.8-31 31 0 17.1 13.9 31 31 31 17.2 0 31.1-13.9 31.1-31 0-.3-.1-.9-.1-.9H38.5V62.5z"/><path fill="#37474F" d="M38.1 126c-17.9 0-32.5-14.6-32.5-32.5C5.5 75.6 20.1 61 38.1 61h.4c.8 0 1.5.7 1.5 1.5V91h29c1.6 0 1.6 1.8 1.6 2.4 0 18-14.6 32.6-32.5 32.6zM37 64c-15.8.6-28.5 13.6-28.5 29.5C8.5 109.8 21.7 123 38 123c16.1 0 29.2-12.9 29.6-29H38.5c-.8 0-1.5-.7-1.5-1.5V64z"/><path fill="#FFECB3" d="M79.5 50.5h-41v11.8c16 0 30.1 13.2 30.5 30.2h10.5v-42z"/><path fill="#37474F" d="M79.5 94H69c-.8 0-1.5-.6-1.5-1.5-.4-15.8-13.5-28.7-29-28.7-.8 0-1.5-.7-1.5-1.5V50.5c0-.8.7-1.5 1.5-1.5h41c.8 0 1.5.7 1.5 1.5v42c0 .8-.7 1.5-1.5 1.5zm-9-3H78V52H40v8.8c16 .8 29.3 13.9 30.5 30.2zM126 77H91c-.8 0-1.5-.7-1.5-1.5S90.2 74 91 74h35c.8 0 1.5.7 1.5 1.5s-.7 1.5-1.5 1.5zm0 12H91c-.8 0-1.5-.7-1.5-1.5S90.2 86 91 86h35c.8 0 1.5.7 1.5 1.5s-.7 1.5-1.5 1.5zm0-36H91c-.8 0-1.5-.7-1.5-1.5S90.2 50 91 50h35c.8 0 1.5.7 1.5 1.5s-.7 1.5-1.5 1.5zm0 11H91c-.8 0-1.5-.7-1.5-1.5S90.2 61 91 61h35c.8 0 1.5.7 1.5 1.5s-.7 1.5-1.5 1.5z"/><g fill="#37474F"><path d="M108.5 104.8c0-1 .8-1.8 1.8-1.8s1.8.8 1.8 1.8-.8 1.8-1.8 1.8-1.8-.8-1.8-1.8z"/><path d="M110.3 107.1c-1.3 0-2.3-1-2.3-2.3 0-1.3 1-2.3 2.3-2.3 1.3 0 2.3 1 2.3 2.3 0 1.2-1.1 2.3-2.3 2.3zm0-3.6c-.7 0-1.3.6-1.3 1.3 0 .7.6 1.3 1.3 1.3.7 0 1.3-.6 1.3-1.3 0-.7-.6-1.3-1.3-1.3zm-14.4 1.3c0-1 .8-1.8 1.8-1.8s1.8.8 1.8 1.8-.8 1.8-1.8 1.8-1.8-.8-1.8-1.8z"/><path d="M97.7 107.1c-1.3 0-2.3-1-2.3-2.3 0-1.3 1-2.3 2.3-2.3 1.3 0 2.3 1 2.3 2.3 0 1.2-1 2.3-2.3 2.3zm0-3.6c-.7 0-1.3.6-1.3 1.3 0 .7.6 1.3 1.3 1.3.7 0 1.3-.6 1.3-1.3 0-.8-.6-1.3-1.3-1.3zm-14.3 1.3c0-1 .8-1.8 1.8-1.8s1.8.8 1.8 1.8-.8 1.8-1.8 1.8-1.8-.8-1.8-1.8z"/><path d="M85.2 107.1c-1.3 0-2.3-1-2.3-2.3 0-1.3 1-2.3 2.3-2.3 1.3 0 2.3 1 2.3 2.3 0 1.2-1.1 2.3-2.3 2.3zm0-3.6c-.7 0-1.3.6-1.3 1.3 0 .7.6 1.3 1.3 1.3.7 0 1.3-.6 1.3-1.3 0-.8-.6-1.3-1.3-1.3z"/></g><g><path fill="#B0BEC5" d="M3.4 62.8L39 27.3l13 13L88.3 4.1"/><path fill="#37474F" d="M3.4 64.3c-.4 0-.8-.1-1.1-.4-.6-.6-.6-1.5 0-2.1l35.6-35.5c.6-.6 1.5-.6 2.1 0l12 12L87.2 3.1c.6-.6 1.5-.6 2.1 0s.6 1.5 0 2.1L53.1 41.4c-.6.6-1.5.6-2.1 0l-12-12L4.5 63.9c-.3.3-.7.4-1.1.4z"/></g></svg>