<svg height="128" viewBox="0 0 128 128" width="128" xmlns="http://www.w3.org/2000/svg"><path d="m19.5 98.5h14v25h-14z" fill="#78909c"/><path d="m35 125h-17v-28h17zm-14-3h11v-22h-11z" fill="#37474f"/><path d="m95.5 98.5h13v25h-13z" fill="#78909c"/><path d="m110 125h-16v-28h16zm-13-3h10v-22h-10z" fill="#37474f"/><path d="m13.5 5.5h101v110h-101z" fill="#fff"/><path d="m116 117h-104v-113h104zm-101-3h98v-107h-98z" fill="#37474f"/><path d="m33.5 17.5h61v24h-61z" fill="#ffab00"/><path d="m94.5 43h-61c-.8 0-1.5-.7-1.5-1.5v-24c0-.8.7-1.5 1.5-1.5h61c.8 0 1.5.7 1.5 1.5v24c0 .8-.7 1.5-1.5 1.5zm-59.5-3h58v-21h-58z" fill="#37474f"/><g fill="#37474f"><path d="m55.6 29.8c0 .8-.6 1.4-1.4 1.4s-1.5-.6-1.5-1.4.7-1.5 1.5-1.5c.7 0 1.4.7 1.4 1.5z"/><path d="m54.1 31.7c-1.1 0-2-.9-2-1.9 0-1.1.9-2 2-2s1.9.9 1.9 2c.1 1.1-.8 1.9-1.9 1.9zm0-2.9c-.6 0-1 .4-1 1 0 .5.4.9 1 .9.5 0 .9-.4.9-.9.1-.5-.3-1-.9-1zm11.7 1c0 .8-.7 1.4-1.5 1.4s-1.5-.6-1.5-1.4.7-1.5 1.5-1.5 1.5.7 1.5 1.5z"/><path d="m64.3 31.7c-1.1 0-2-.9-2-1.9 0-1.1.9-2 2-2s2 .9 2 2-.9 1.9-2 1.9zm0-2.9c-.5 0-1 .4-1 1 0 .5.4.9 1 .9s1-.4 1-.9-.5-1-1-1z"/><path d="m75.9 29.8c0 .8-.6 1.4-1.4 1.4s-1.5-.6-1.5-1.4.6-1.5 1.5-1.5c.8 0 1.4.7 1.4 1.5z"/><path d="m74.5 31.7c-1.1 0-2-.9-2-1.9 0-1.1.9-2 2-2s1.9.9 1.9 2-.8 1.9-1.9 1.9zm0-2.9c-.5 0-1 .4-1 1 0 .5.4.9 1 .9.5 0 .9-.4.9-.9s-.4-1-.9-1z"/></g><path d="m33.5 49.5h61v24h-61z" fill="#ffab00"/><path d="m94.5 75h-61c-.8 0-1.5-.7-1.5-1.5v-24c0-.8.7-1.5 1.5-1.5h61c.8 0 1.5.7 1.5 1.5v24c0 .8-.7 1.5-1.5 1.5zm-59.5-3h58v-21h-58z" fill="#37474f"/><g fill="#37474f"><path d="m55.6 61.8c0 .8-.6 1.4-1.4 1.4s-1.5-.6-1.5-1.4.7-1.5 1.5-1.5c.7 0 1.4.6 1.4 1.5z"/><path d="m54.1 63.7c-1.1 0-2-.9-2-1.9 0-1.1.9-2 2-2s1.9.9 1.9 2c.1 1-.8 1.9-1.9 1.9zm0-2.9c-.6 0-1 .4-1 1 0 .5.4.9 1 .9.5 0 .9-.4.9-.9.1-.6-.3-1-.9-1zm11.7 1c0 .8-.7 1.4-1.5 1.4s-1.5-.6-1.5-1.4.7-1.5 1.5-1.5 1.5.6 1.5 1.5z"/><path d="m64.3 63.7c-1.1 0-2-.9-2-1.9 0-1.1.9-2 2-2s2 .9 2 2c0 1-.9 1.9-2 1.9zm0-2.9c-.5 0-1 .4-1 1 0 .5.4.9 1 .9s1-.4 1-.9c0-.6-.5-1-1-1z"/><path d="m75.9 61.8c0 .8-.6 1.4-1.4 1.4s-1.5-.6-1.5-1.4.6-1.5 1.5-1.5c.8 0 1.4.6 1.4 1.5z"/><path d="m74.5 63.7c-1.1 0-2-.9-2-1.9 0-1.1.9-2 2-2s1.9.9 1.9 2c0 1-.8 1.9-1.9 1.9zm0-2.9c-.5 0-1 .4-1 1 0 .5.4.9 1 .9.5 0 .9-.4.9-.9 0-.6-.4-1-.9-1z"/></g><path d="m33.5 81.5h61v24h-61z" fill="#ffab00"/><g fill="#37474f"><path d="m94.5 107h-61c-.8 0-1.5-.7-1.5-1.5v-24c0-.8.7-1.5 1.5-1.5h61c.8 0 1.5.7 1.5 1.5v24c0 .8-.7 1.5-1.5 1.5zm-59.5-3h58v-21h-58z"/><g><path d="m55.6 93.7c0 .8-.6 1.4-1.4 1.4s-1.5-.6-1.5-1.4.7-1.5 1.5-1.5c.7 0 1.4.7 1.4 1.5z"/><path d="m54.1 95.6c-1.1 0-2-.9-2-1.9 0-1.1.9-2 2-2s1.9.9 1.9 2c.1 1.1-.8 1.9-1.9 1.9zm0-2.9c-.5 0-1 .4-1 1 0 .5.4.9 1 .9.5 0 .9-.4.9-.9.1-.6-.3-1-.9-1zm11.7 1c0 .8-.7 1.4-1.5 1.4s-1.5-.6-1.5-1.4.7-1.5 1.5-1.5 1.5.7 1.5 1.5z"/><path d="m64.3 95.6c-1.1 0-2-.9-2-1.9 0-1.1.9-2 2-2s2 .9 2 2-.9 1.9-2 1.9zm0-2.9c-.5 0-1 .4-1 1 0 .5.4.9 1 .9s1-.4 1-.9-.5-1-1-1z"/><path d="m75.9 93.7c0 .8-.6 1.4-1.4 1.4s-1.5-.6-1.5-1.4.6-1.5 1.5-1.5c.8 0 1.4.7 1.4 1.5z"/><path d="m74.5 95.6c-1.1 0-2-.9-2-1.9 0-1.1.9-2 2-2s1.9.9 1.9 2-.8 1.9-1.9 1.9zm0-2.9c-.5 0-1 .4-1 1 0 .5.4.9 1 .9.5 0 .9-.4.9-.9 0-.6-.4-1-.9-1z"/></g></g></svg>