<svg height="128" viewBox="0 0 128 128" width="128" xmlns="http://www.w3.org/2000/svg" xmlns:xlink="http://www.w3.org/1999/xlink"><clipPath id="a"><path d="m22 21h84v81h-84z"/></clipPath><path d="m7.5 5.5h113v113h-113z" fill="#fff"/><path d="m122 120h-116v-116h116zm-113-3h110v-110h-110z" fill="#37474f"/><path d="m22 21h84v81h-84z" fill="#b0bec5"/><g clip-path="url(#a)"><path d="m22.3 102.4 31.4-31.4 15.5 15.4 29-29 16.1 16.1 18.6 18.6-15.1 30.7-70.5-11.7-24.5-1.5-1.9-5.4z" fill="#ffab00"/><path d="m117.8 124.3h-.2l-70.4-11.7-24.4-1.5c-.6 0-1.1-.4-1.3-1l-2-5.4c-.2-.5-.1-1 .2-1.5l1.4-1.8.1-.1 31.4-31.4c.6-.6 1.6-.6 2.1 0l14.4 14.4 28-28c.6-.6 1.6-.6 2.1 0l34.7 34.7c.5.5.6 1.1.3 1.7l-15.1 30.7c-.2.6-.8.9-1.3.9zm-93.9-16.2 23.5 1.4h.2l69.4 11.6 14-28.7-32.8-32.9-28 28c-.3.3-.7.4-1.1.4s-.8-.2-1.1-.4l-14.3-14.4-30.3 30.3-.9 1.1z" fill="#37474f"/></g><g clip-path="url(#a)"><path d="m137.7 51.7c0-3.1-2.2-5.5-5.1-6.1-.6-2.9-3-5.1-6.1-5.1-2.6 0-4.8 1.6-5.8 3.8-.7-.3-1.4-.6-2.1-.7 0-.2.1-.3.1-.4 0-5.2-4.2-9.5-9.5-9.5-2.3-6-8-10.3-14.8-10.3-7.1 0-13 4.8-15 11.3h-.2c-5.3 0-9.5 4.3-9.5 9.5 0 1 .3 1.8.6 2.7-2.3.9-4 3.2-4 5.9 0 2.5 1.5 4.4 3.6 5.5l-1.1.4h3.1c.3 0 .5.2.8.2s.5-.2.8-.2h61.8l-3.2-.8c3.1-.6 5.6-3 5.6-6.2zm-16.3 3c.8-.6 1.6-1.4 2-2.4.6.3 1.1.5 1.8.6.3 1.4 1 2.7 2.1 3.6z" fill="#fff"/><path d="m72.6 60.2c-.4 0-.7-.1-.8-.1h-12.5l7.3-2.4c-1.2-1.4-1.9-3.1-1.9-4.9 0-2.7 1.4-5.2 3.7-6.6-.1-.6-.3-1.2-.3-1.9 0-5.8 4.5-10.6 10.2-11 2.6-6.8 8.9-11.3 16-11.3 6.9 0 13 4 15.8 10.3 5.3.5 9.5 4.8 9.9 10.1 1.5-2 3.8-3.3 6.4-3.3 3.4 0 6.3 2.2 7.3 5.4 3.2 1.1 5.4 4 5.4 7.3 0 2.2-1 4.2-2.6 5.6l11.2 2.7h-74.2c-.3 0-.6.1-.9.1zm-1.7-3.2h.9c.3 0 .6.1.8.1.2-.1.5-.1.8-.1h50.4l-5.6-1.7 2.3-1.8c.8-.6 1.3-1.2 1.6-1.9l.7-1.5 1.4.8c.4.2.8.4 1.4.5l1 .2.2 1c.2 1.1.7 2 1.6 2.7l1.4 1.2 2.2-.3c2.6-.3 4.3-2.2 4.3-4.6 0-2.3-1.6-4.2-3.9-4.6l-1-.2-.2-1c-.5-2.3-2.4-3.9-4.6-3.9-1.9 0-3.6 1.1-4.4 2.9l-.7 1.5-1.4-.7c-.5-.3-1-.4-1.6-.5l-1.5-.2.2-1.5c0-.1 0-.3.1-.4-.1-4.3-3.6-7.8-8-7.9h-1l-.4-1c-2.1-5.7-7.4-9.3-13.4-9.3-6.2 0-11.6 4.1-13.5 10.2l-.3 1.1h-1.4c-4.4.1-7.9 3.7-7.9 8 0 .7.2 1.4.5 2.2l.4 1.3-1.3.5c-1.8.8-3 2.5-3 4.5 0 1.8 1 3.3 2.7 4.1z" fill="#37474f"/></g><path d="m108 104h-87v-84h87zm-84-3h81v-78h-81z" fill="#37474f"/><path d="m24.8 100.1 31.3-10.1-1.3-15.3" fill="#ffecb3"/><path d="m24.8 101.6c-.6 0-1.2-.4-1.4-1-.3-.8.2-1.6 1-1.9l30.1-9.7-1.2-14.2c-.1-.8.5-1.6 1.4-1.6.8-.1 1.6.5 1.6 1.4l1.3 15.3c.1.7-.4 1.3-1 1.6l-31.3 10.1z" fill="#37474f"/><path d="m69.2 86.4 28.4-14.3.3-11.5" fill="#ffecb3"/><path d="m69.2 87.9c-.5 0-1.1-.3-1.3-.8-.4-.7-.1-1.6.7-2l27.6-14 .3-10.5c0-.8.7-1.5 1.5-1.5s1.5.7 1.5 1.5l-.5 11.5c0 .5-.3 1-.8 1.3l-28.4 14.4c-.2.1-.4.1-.6.1z" fill="#37474f"/><path d="m56.6 62c-8.8 0-15.9-7.1-15.9-15.9 0-5.2 2.5-9.7 6.3-12.6-8.4 1.1-14.9 8.2-14.9 16.9 0 9.4 7.6 17.1 17.1 17.1 5.5 0 10.4-2.7 13.5-6.8-1.8.9-3.8 1.3-6.1 1.3z" fill="#fff"/><path d="m49.3 69c-10.2 0-18.6-8.3-18.6-18.6 0-9.2 6.9-17.1 16.2-18.3l5.6-.7-4.5 3.4c-3.6 2.8-5.7 6.9-5.7 11.4 0 7.9 6.4 14.4 14.4 14.4 1.9 0 3.8-.4 5.6-1.1l5.3-2.3-3.6 4.5c-3.5 4.6-8.9 7.3-14.7 7.3zm-7.2-32.3c-5 2.6-8.4 7.8-8.4 13.7 0 8.6 7 15.6 15.6 15.6 3 0 5.9-.9 8.4-2.5h-1.1c-9.6 0-17.4-7.8-17.4-17.4.1-3.4 1.1-6.6 2.9-9.4z" fill="#37474f"/><path d="m75 13.2c0-1 .8-1.8 1.8-1.8s1.8.8 1.8 1.8-.8 1.8-1.8 1.8-1.8-.8-1.8-1.8z" fill="#37474f"/><path d="m76.8 15.5c-1.3 0-2.3-1-2.3-2.3s1-2.3 2.3-2.3 2.3 1 2.3 2.3-1 2.3-2.3 2.3zm0-3.6c-.7 0-1.3.6-1.3 1.3s.6 1.3 1.3 1.3 1.3-.6 1.3-1.3-.6-1.3-1.3-1.3z" fill="#3f3f3f"/><path d="m62.5 13.2c0-1 .8-1.8 1.8-1.8s1.8.8 1.8 1.8-.8 1.8-1.8 1.8-1.8-.8-1.8-1.8z" fill="#37474f"/><path d="m64.3 15.5c-1.3 0-2.3-1-2.3-2.3s1-2.3 2.3-2.3 2.3 1 2.3 2.3c0 1.2-1.1 2.3-2.3 2.3zm0-3.6c-.7 0-1.3.6-1.3 1.3s.6 1.3 1.3 1.3 1.3-.6 1.3-1.3-.6-1.3-1.3-1.3z" fill="#3f3f3f"/><path d="m49.9 13.2c0-1 .8-1.8 1.8-1.8s1.8.8 1.8 1.8-.8 1.8-1.8 1.8-1.8-.8-1.8-1.8z" fill="#37474f"/><path d="m51.7 15.5c-1.3 0-2.3-1-2.3-2.3s1-2.3 2.3-2.3 2.3 1 2.3 2.3-1 2.3-2.3 2.3zm0-3.6c-.7 0-1.3.6-1.3 1.3s.6 1.3 1.3 1.3 1.3-.6 1.3-1.3-.6-1.3-1.3-1.3z" fill="#3f3f3f"/></svg>