<svg xmlns="http://www.w3.org/2000/svg" viewBox="236 -236 512 512"><path d="M382.2 106.9v-175c0-.6.6-.6.6-1.3 1.9-10.7 8.8-17 18.8-20.1.6 0 1.9-.6 2.5-.6h175c.6 0 .6.6 1.3.6 10.7 2.5 17.5 8.8 20.7 19.5 0 .6.6 1.9.6 2.5v175c0 .6-.6 1.3-.6 1.9-2.5 11.9-12.5 20.7-24.5 20.7H407.3c-11.3 0-21.3-8.1-24.5-19.5.1-1.2-.6-2.4-.6-3.7zM407.3 2.8v91.6c0 6.3 3.1 9.4 9.4 9.4h149.9c6.3 0 9.4-3.1 9.4-9.4V2.8h-18.8c3.1 13.2 2.5 26.4-1.9 39.5-4.4 13.2-12.5 23.2-23.2 31.4-10.7 8.1-23.2 12.5-37 13.2-18.8.6-35.8-5-48.9-18.2-18.8-18.2-25.1-40.8-19.5-66.5-6.8.6-12.5.6-19.4.6zM492-22.3c-23.2 0-42 18.8-42 42s18.8 42 42 42 42-18.8 42.6-42c-.6-23.2-19.4-42-42.6-42zm84.7-21.3v-11.9c0-5-3.8-8.8-8.8-8.8h-24.5c-5 0-8.8 3.1-8.8 8.1v25.7c0 5 3.1 8.1 8.1 8.1h25.7c5 0 8.1-3.8 8.1-8.8.2-4.3.2-8.6.2-12.4z"/><path d="M492 276c-68.4 0-132.7-26.6-181-75-48.4-48.4-75-112.6-75-181s26.6-132.7 75-181 112.6-75 181-75 132.7 26.6 181 75c48.4 48.4 75 112.6 75 181s-26.6 132.7-75 181c-48.3 48.4-112.6 75-181 75zm0-492.8c-63.2 0-122.7 24.6-167.4 69.3S255.2-43.2 255.2 20s24.6 122.7 69.3 167.4 104.2 69.3 167.4 69.3 122.7-24.6 167.4-69.3C704 142.7 728.6 83.2 728.6 20S704-102.7 659.3-147.4c-44.6-44.7-104.1-69.4-167.3-69.4z"/></svg>