<svg viewBox="236 -236 512 512" xmlns="http://www.w3.org/2000/svg"><g fill="#ff6700"><path d="m567.9-64.3h-24.5c-5 0-8.8 3.1-8.8 8.1v25.7c0 5 3.1 8.1 8.1 8.1h25.7c5 0 8.1-3.8 8.1-8.8.2-4.3.2-8.6.2-12.4v-11.9c0-5-3.8-8.8-8.8-8.8zm-12.6 106.6c-4.4 13.2-12.5 23.2-23.2 31.4-10.7 8.1-23.2 12.5-37 13.2-18.8.6-35.8-5-48.9-18.2-18.8-18.2-25.1-40.8-19.5-66.5-6.8.6-12.5.6-19.4.6v91.6c0 6.3 3.1 9.4 9.4 9.4h149.9c6.3 0 9.4-3.1 9.4-9.4v-89.1-2.5h-18.8c3.1 13.2 2.5 26.4-1.9 39.5z"/><path d="m492 61.7c23.2 0 42-18.8 42.6-42-.6-23.2-19.4-42-42.6-42s-42 18.8-42 42 18.8 42 42 42z"/><path d="m492-236c-141.4 0-256 114.6-256 256s114.6 256 256 256 256-114.6 256-256-114.6-256-256-256zm109.7 343.5c0 .6-.6 1.3-.6 1.9-2.5 11.9-12.5 20.7-24.5 20.7h-169.3c-11.3 0-21.3-8.1-24.5-19.5.1-1.2-.6-2.4-.6-3.7v-175c0-.6.6-.6.6-1.3 1.9-10.7 8.8-17 18.8-20.1.6 0 1.9-.6 2.5-.6h175c.6 0 .6.6 1.3.6 10.7 2.5 17.5 8.8 20.7 19.5 0 .6.6 1.9.6 2.5z"/></g></svg>