<svg id="Layer_1" xmlns="http://www.w3.org/2000/svg" xmlns:xlink="http://www.w3.org/1999/xlink" viewBox="0 0 128 128"><style>.st0{fill:#fff}.st0,.st1,.st2,.st3{clip-path:url(#SVGID_2_)}.st1{stroke:#37474f;stroke-width:3;stroke-linecap:round;stroke-linejoin:round;stroke-miterlimit:10;fill:none}.st2{fill:#b0bec5}.st3{fill:#37474f}.st4{fill:none;stroke:#37474f;stroke-miterlimit:10}.st4,.st5,.st6,.st7{clip-path:url(#SVGID_2_)}.st5{stroke:#37474f;stroke-width:3;stroke-linecap:round;stroke-miterlimit:10;fill:none}.st6{fill:#ffab00}.st7{fill:none;stroke:#37474f;stroke-width:3;stroke-linejoin:round;stroke-miterlimit:10}</style><defs><path id="SVGID_1_" d="M0 0h128v128H0z"/></defs><clipPath id="SVGID_2_"><use xlink:href="#SVGID_1_" overflow="visible"/></clipPath><path class="st0" d="M117.7 21.8l-4.6-3.6-7.5-5.6-7 4.9H97l-7-4.8-7 4.8h-1.7l-7-4.8-7 4.8h-1.7l-7-4.8-7 4.8h-1.7l-7-4.8-7 4.8h-1.4v74h-27v10.2c0 7.5 6.6 13.8 14.1 13.8H108c7.5 0 13.5-6.3 13.5-13.8V30.9c0-6 .7-5.3-3.8-9.1"/><path class="st1" d="M117.7 21.8l-4.6-3.6-7.5-5.6-7 4.9H97l-7-4.8-7 4.8h-1.7l-7-4.8-7 4.8h-1.7l-7-4.8-7 4.8h-1.7l-7-4.8-7 4.8h-1.4v74h-27v10.2c0 7.5 6.6 13.8 14.1 13.8H108c7.5 0 13.5-6.3 13.5-13.8V30.9c0-6 .7-5.3-3.8-9.1z"/><path class="st2" d="M6.5 40.5v58.9c0 7.9 6.1 14.3 14 14.3s14-6.4 14-14.3V40.5h-28z"/><path class="st1" d="M6.5 40.5v58.9c0 7.9 6.1 14.3 14 14.3s14-6.4 14-14.3V40.5h-28z"/><path class="st3" d="M49.7 31.3c0 .8-.6 1.4-1.4 1.4-.8 0-1.4-.6-1.4-1.4 0-.8.6-1.4 1.4-1.4.7 0 1.4.7 1.4 1.4"/><path class="st4" d="M49.7 31.3c0 .8-.6 1.4-1.4 1.4-.8 0-1.4-.6-1.4-1.4 0-.8.6-1.4 1.4-1.4.7 0 1.4.7 1.4 1.4z"/><path class="st3" d="M59.4 31.3c0 .8-.7 1.4-1.4 1.4-.8 0-1.4-.6-1.4-1.4 0-.8.6-1.4 1.4-1.4.8 0 1.4.7 1.4 1.4"/><path class="st4" d="M59.4 31.3c0 .8-.7 1.4-1.4 1.4-.8 0-1.4-.6-1.4-1.4 0-.8.6-1.4 1.4-1.4.8 0 1.4.7 1.4 1.4z"/><path class="st3" d="M69.2 31.3c0 .8-.6 1.4-1.4 1.4-.8 0-1.4-.6-1.4-1.4 0-.8.6-1.4 1.4-1.4.8 0 1.4.7 1.4 1.4"/><path class="st4" d="M69.2 31.3c0 .8-.6 1.4-1.4 1.4-.8 0-1.4-.6-1.4-1.4 0-.8.6-1.4 1.4-1.4.8 0 1.4.7 1.4 1.4z"/><path class="st5" d="M48 81.5h65m-65 8h65m-65 7h65m-65 7h65m-37-50h37m-37 7h37m-37 7h37m-37 8h37"/><path class="st6" d="M48.5 53.5h21v21h-21z"/><path class="st7" d="M48.5 53.5h21v21h-21z"/><path class="st6" d="M106 37h6v9h-6z"/><path class="st3" d="M52.4 37.8v7.9c0 .4-.3.8-.8.8s-.8-.3-.8-.8v-3.2h-3.5v3.2c0 .4-.4.8-.8.8s-.8-.3-.8-.8v-7.9c0-.4.3-.8.8-.8.4 0 .8.4.8.8V41h3.5v-3.2c0-.4.4-.8.8-.8.5 0 .8.4.8.8m7 7.9c0 .4-.3.8-.8.8h-4.3c-.5 0-.8-.3-.8-.8v-7.9c0-.4.3-.8.8-.8h4.3c.5 0 .8.4.8.8s-.3.8-.8.8H55V41h2.8c.4 0 .8.3.8.8 0 .4-.4.8-.8.8H55V45h3.5c.5-.1.9.3.9.7m8.9-.3v.3c0 .4-.3.8-.8.8-.3 0-.6-.2-.7-.5l-.6-1.5h-3.7l-.6 1.5c-.1.3-.4.5-.7.5-.5 0-.8-.4-.8-.8v-.3l3.2-7.9c.1-.3.4-.5.7-.5.3 0 .6.2.7.5l3.3 7.9zm-2.7-2.5l-1.2-3-1.2 3h2.4zm4.5 3.6c-.4 0-.8-.3-.8-.8v-7.9c0-.4.4-.8.8-.8h2.3c.1 0 4 0 4 4.8 0 4.7-4 4.7-4 4.7h-2.3zm.8-1.6h1.5s.7 0 1.3-.4c.8-.5 1.2-1.4 1.2-2.7 0-1.4-.4-2.3-1.2-2.8-.6-.4-1.2-.4-1.2-.4H71v6.3zm7.4 1.6c-.4 0-.8-.3-.8-.8v-7.9c0-.4.3-.8.8-.8s.8.4.8.8v7.1h2.8c.4 0 .8.3.8.8 0 .4-.3.8-.8.8h-3.6zm5.4-.8v-7.9c0-.4.4-.8.8-.8s.8.4.8.8v7.9c0 .4-.3.8-.8.8s-.8-.4-.8-.8m8.3.5l-4.1-5.9v5.4c0 .4-.4.8-.8.8-.5 0-.8-.3-.8-.8v-7.9c0-.4.3-.8.8-.8.2 0 .5.1.6.3l4.1 5.9v-5.4c0-.4.4-.8.8-.8s.8.4.8.8v7.9c0 .4-.3.8-.8.8-.2 0-.5-.1-.6-.3m8.4-.5c0 .4-.3.8-.8.8h-4.3c-.5 0-.8-.3-.8-.8v-7.9c0-.4.3-.8.8-.8h4.3c.5 0 .8.4.8.8s-.3.8-.8.8H96V41h2.8c.4 0 .8.3.8.8 0 .4-.4.8-.8.8H96V45h3.5c.5-.1.9.3.9.7"/></svg>