<svg xmlns="http://www.w3.org/2000/svg" width="128" height="128" viewBox="0 0 128 128"><path fill="#78909C" d="M14.5 15.5h107v107h-107z"/><path fill="#37474F" d="M123 124H13V14h110v110zm-107-3h104V17H16v104z"/><path fill="#FFF" d="M7.5 6.5h106v108H7.5z"/><path fill="#37474F" d="M115 116H6V5h109v111zM9 113h103V8H9v105z"/><path fill="#37474F" d="M20.5 19.5h34v34h-34z"/><path fill="#37474F" d="M54.5 55h-34c-.8 0-1.5-.7-1.5-1.5v-34c0-.8.7-1.5 1.5-1.5h34c.8 0 1.5.7 1.5 1.5v34c0 .8-.7 1.5-1.5 1.5zM22 52h31V21H22v31z"/><path fill="#FFAB00" d="M43.1 44.5L42 41h-8.7l-2.6 8h-3.2l8.3-25h3.8L48 49h-3.4l-1.5-4.5M41.3 39l-2.4-7.3c-.6-1.6-.9-2.7-1.3-4.7h-.1c-.4 2-.8 3.2-1.2 4.7L33.9 39h7.4z"/><g fill="#37474F"><path d="M75.3 21.4c0-.7-.6-1.2-1.2-1.2-.7 0-1.3.6-1.3 1.2s.6 1.2 1.3 1.2c.7 0 1.2-.5 1.2-1.2z"/><path d="M74.1 23.1c-1 0-1.8-.8-1.8-1.7 0-1 .8-1.7 1.8-1.7.9 0 1.7.8 1.7 1.7 0 .9-.7 1.7-1.7 1.7zm0-2.4c-.4 0-.8.3-.8.7 0 .4.3.7.8.7.4 0 .7-.3.7-.7 0-.4-.3-.7-.7-.7zm9.9.7c0-.7-.5-1.2-1.2-1.2-.6 0-1.2.6-1.2 1.2s.6 1.2 1.2 1.2 1.2-.5 1.2-1.2z"/><path d="M82.7 23.1c-.9 0-1.7-.8-1.7-1.7 0-.9.8-1.7 1.7-1.7 1 0 1.7.8 1.7 1.7.1 1-.7 1.7-1.7 1.7zm0-2.4c-.4 0-.7.3-.7.7 0 .4.3.7.7.7.4 0 .7-.3.7-.7.1-.4-.2-.7-.7-.7zm10 .7c0-.7-.6-1.2-1.2-1.2-.7 0-1.2.6-1.2 1.2s.5 1.2 1.2 1.2c.6 0 1.2-.5 1.2-1.2z"/><path d="M91.4 23.1c-1 0-1.7-.8-1.7-1.7 0-1 .8-1.7 1.7-1.7 1 0 1.7.8 1.7 1.7.1.9-.7 1.7-1.7 1.7zm0-2.4c-.4 0-.7.3-.7.7 0 .4.3.7.7.7.4 0 .7-.3.7-.7.1-.4-.3-.7-.7-.7z"/></g><path fill="#FFAB00" d="M64 55.5h37m0 1.5H64c-.8 0-1.5-.7-1.5-1.5S63.2 54 64 54h37c.8 0 1.5.7 1.5 1.5s-.7 1.5-1.5 1.5zM64 46.5h37m0 1.5H64c-.8 0-1.5-.7-1.5-1.5S63.2 45 64 45h37c.8 0 1.5.7 1.5 1.5s-.7 1.5-1.5 1.5z"/><g fill="#FFAB00"><path d="M64 37.5h37m0 1.5H64c-.8 0-1.5-.7-1.5-1.5S63.2 36 64 36h37c.8 0 1.5.7 1.5 1.5s-.7 1.5-1.5 1.5z"/></g><path fill="#FFAB00" d="M20 81.5h81"/><path fill="#37474F" d="M101 83H20c-.8 0-1.5-.7-1.5-1.5S19.2 80 20 80h81c.8 0 1.5.7 1.5 1.5s-.7 1.5-1.5 1.5z"/><path fill="#FFAB00" d="M20 72.5h81"/><path fill="#37474F" d="M101 74H20c-.8 0-1.5-.7-1.5-1.5S19.2 71 20 71h81c.8 0 1.5.7 1.5 1.5s-.7 1.5-1.5 1.5z"/><path fill="#FFAB00" d="M20 63.5h81"/><path fill="#37474F" d="M101 65H20c-.8 0-1.5-.7-1.5-1.5S19.2 62 20 62h81c.8 0 1.5.7 1.5 1.5s-.7 1.5-1.5 1.5z"/><g><path fill="#FFAB00" d="M20.5 89.5h81v12h-81z"/><path fill="#37474F" d="M101.5 103h-81c-.8 0-1.5-.7-1.5-1.5v-12c0-.8.7-1.5 1.5-1.5h81c.8 0 1.5.7 1.5 1.5v12c0 .8-.7 1.5-1.5 1.5zM22 100h78v-9H22v9z"/></g></svg>