<svg xmlns="http://www.w3.org/2000/svg" width="128" height="128" viewBox="0 0 128 128"><path fill="#FFECB3" d="M97 61.3V22.7c4-1.1 7.6-5.2 7.6-10.1 0-5.7-4.8-10.5-10.5-10.5-4.9 0-9.2 3.8-10.2 7.8h-1.3l-6.8-6.8L69 10h-1.3l-6.8-6.8-6.8 6.8h-1.3L46 3.2 39.2 10h-1.3L31 3.2 24.3 10H23c-1.1-4-5.2-7.8-10.1-7.8-5.7 0-10.1 4.7-10.1 10.4 0 4.9 3.2 9.1 8.2 10.1v38.5c-5 1.1-8.2 5.2-8.2 10.1C2.8 77 7.3 81.8 13 81.8c4.9 0 8.9-3.8 10-7.8h1.3l6.8 6.8 6.8-6.8h1.3l6.8 6.8 6.8-6.8h1.3l6.8 6.8 6.8-6.8H69l6.8 6.8 6.8-6.8h1.3c1.1 4 5.2 7.8 10.1 7.8 5.7 0 10.7-4.7 10.7-10.4-.1-4.9-3.7-9.1-7.7-10.1z"/><path fill="#37474F" d="M93.9 83.8c-5.2 0-9.3-3.4-11.2-7.2l-5.5 5.5c-.8.8-2 .8-2.8 0l-6-6-6 6c-.8.8-2 .8-2.8 0l-6-6-6 6c-.8.8-2 .8-2.8 0l-6-6-6 6c-.8.8-2 .8-2.8 0l-5.5-5.5c-1.9 3.8-5.9 7.2-11.1 7.2-6.7 0-12.2-5.6-12.2-12.5 0-5.4 3.2-9.9 8.2-11.6V24.2C4 22.5.8 18 .8 12.6.8 5.8 6.2.2 12.9.2c5.2 0 9.3 3.4 11.2 7.2l5.5-5.5c.8-.8 2.1-.8 2.8 0l6 6 6-6c.4-.4.9-.6 1.4-.6.5 0 1 .2 1.4.6l6 6 6-6c.4-.4.9-.6 1.4-.6.5 0 1 .2 1.4.6l6 6 6-6c.4-.4.9-.6 1.4-.6.5 0 1 .2 1.4.6l5.6 5.6C84.3 3.7 88.6.3 93.8.3c6.8 0 12.5 5.7 12.5 12.5 0 4.9-3.2 9.6-7.6 11.5V60c4.4 1.9 7.6 6.6 7.6 11.6.3 6.5-5.5 12.2-12.4 12.2zM82.5 72h1.3c.9 0 1.7.6 1.9 1.5.8 3.1 4.1 6.3 8.1 6.3 4.6 0 8.7-3.9 8.7-8.4 0-4.1-3.1-7.4-6.1-8.2-.9-.2-1.5-1-1.5-1.9V22.7c0-.9.6-1.7 1.5-1.9 3-.8 6.1-4.1 6.1-8.1 0-4.6-3.9-8.5-8.5-8.5-4.1 0-7.5 3.3-8.3 6.3-.2.9-1 1.5-1.9 1.5h-1.3c-.5 0-1-.2-1.4-.6L75.8 6l-5.4 5.4c-.4.4-.9.6-1.4.6h-1.3c-.5 0-1-.2-1.4-.6L60.9 6l-5.4 5.4c-.4.4-.9.6-1.4.6h-1.3c-.5 0-1-.2-1.4-.6L45.9 6l-5.4 5.4c-.4.4-.9.6-1.4.6h-1.3c-.5 0-1-.2-1.4-.6L31 6l-5.4 5.4c-.4.4-.9.6-1.4.6H23c-.9 0-1.7-.6-1.9-1.5-.8-3.1-4.1-6.3-8.1-6.3-4.6 0-8.1 3.7-8.1 8.4 0 4.1 2.7 7.3 6.6 8.2.9.2 1.6 1 1.6 2v38.5c0 .9-.7 1.8-1.6 2-4 .9-6.6 4-6.6 8.1 0 4.7 3.7 8.5 8.2 8.5 4 0 7.2-3.2 8-6.3.2-.9 1-1.5 1.9-1.5h1.3c.5 0 1 .2 1.4.6L31 78l5.4-5.4c.4-.4.9-.6 1.4-.6h1.3c.5 0 1 .2 1.4.6l5.4 5.4 5.4-5.4c.4-.4.9-.6 1.4-.6H54c.5 0 1 .2 1.4.6l5.4 5.4 5.4-5.4c.4-.4.9-.6 1.4-.6H69c.5 0 1 .2 1.4.6l5.4 5.4 5.4-5.4c.3-.4.8-.6 1.3-.6z"/><path fill="#B0BEC5" d="M21 22h66v40H21z"/><path fill="#37474F" d="M87 64H21c-1.1 0-2-.9-2-2V22c0-1.1.9-2 2-2h66c1.1 0 2 .9 2 2v40c0 1.1-.9 2-2 2zm-64-4h62V24H23v36z"/><path fill="#FFAB00" d="M21.7 58.9l22.1-22.1 9.8 9.7 4.7-4.7 8.5 8.5 14.5-14.5 4.8 4.7"/><path fill="#37474F" d="M21.7 60.9c-.5 0-1-.2-1.4-.6-.8-.8-.8-2 0-2.8l22.2-22.2c.8-.8 2-.8 2.8 0l8.3 8.3 3.3-3.3c.8-.8 2-.8 2.8 0l7.1 7.1 13.1-13.1c.8-.8 2-.8 2.8 0l4.8 4.8c.8.8.8 2 0 2.8s-2 .8-2.8 0l-3.3-3.3-13.2 13.1c-.8.8-2 .8-2.8 0l-7.1-7.1-3.3 3.3c-.8.8-2 .8-2.8 0l-8.3-8.3-20.8 20.7c-.4.4-.9.6-1.4.6z"/><path fill="#FFECB3" d="M35.5 35c-1.7 1.8-4.6 1.9-6.4.1-1.8-1.7-1.9-4.6-.1-6.4"/><path fill="#37474F" d="M32.2 38.4c-1.7 0-3.3-.6-4.5-1.8-1.3-1.2-2-2.8-2-4.6 0-1.7.6-3.4 1.8-4.6.8-.8 2-.8 2.8-.1.8.8.8 2 .1 2.8-.5.5-.7 1.1-.7 1.8s.3 1.3.8 1.7c.5.5 1.1.7 1.8.7s1.3-.3 1.7-.8c.8-.8 2-.8 2.8-.1.8.8.8 2 .1 2.8-1.2 1.3-2.8 2-4.6 2 0 .2 0 .2-.1.2z"/><g><path fill="#FFAB00" d="M82.2 77.2c2.1-3.3 5.9-9.9 9.4-13.7 14.9-15.9 32.2-19 33.6-19.3l.1-.1v.1h.1l-.1.1c-.3 1.5-3.4 18.8-19.3 33.7-3.9 3.6-10.3 7.2-13.7 9.4"/><path fill="#37474F" d="M92.3 89.4c-.7 0-1.3-.3-1.7-.9-.6-.9-.3-2.2.6-2.8.7-.4 1.4-.9 2.3-1.4 3.4-2.1 8.1-5 11.1-7.8 12-11.2 16.5-23.7 18-29.6-5.9 1.6-18.4 6.1-29.6 18-2.7 2.9-5.6 7.6-7.7 11-.5.9-1 1.7-1.5 2.4-.6.9-1.8 1.2-2.8.6-.9-.6-1.2-1.8-.6-2.8.4-.7.9-1.5 1.4-2.3C84 70.2 87 65.3 90 62.2c13.9-14.9 30-18.9 34.2-19.8.5-.3 1.2-.4 1.8-.1.3.1.5.3.7.5.2.2.4.4.5.7.2.6.2 1.2-.1 1.8-.8 4.2-4.9 20.2-19.8 34.2-3.3 3.1-8.2 6.1-11.8 8.3-.8.5-1.6 1-2.2 1.4-.2.1-.6.2-1 .2z"/><path fill="#78909C" d="M50.7 104.5c6.2-7.2 17.4-4.9 18.4-4.8l.1-.1v.1h.1l-.1.1c.2.9 2.5 12.1-4.8 18.4-7.2 6.2-16 3.5-16.9 3.2h-.1v-.1h-.1v-.1c-.1-.7-2.8-9.6 3.4-16.7z"/><path fill="#37474F" d="M53.2 124.2c-2.6 0-4.8-.5-5.9-.8-.1 0-.3 0-.4-.1-.5-.2-.9-.5-1.2-1 0-.1-.1-.1-.1-.2-.1-.2-.1-.4-.2-.6-.7-2.3-2.7-11.1 3.7-18.5 4.2-4.9 10.4-5.9 14.8-5.9 1.7 0 3.5.2 5.2.5.1 0 .3 0 .4.1.3.1.5.2.7.3.5.3.8.7.9 1.3 0 .2.1.4 0 .6.5 3.1 1.8 13.5-5.5 19.8-3.3 3-7.7 4.5-12.4 4.5zm-4.1-4.4c1 .2 2.4.5 4.1.5 3.8 0 7.2-1.2 9.9-3.6 5.2-4.5 4.8-12 4.3-15.2-.9-.1-2.1-.2-3.4-.2-3.6 0-8.5.8-11.8 4.5-4.5 5.2-3.7 11.5-3.1 14z"/><g><path fill="#FFF" d="M71.6 103.9L65.7 98l16.5-20.8 10.1 10.2z"/><path fill="#37474F" d="M71.6 105.9c-.5 0-1-.2-1.4-.6l-5.9-5.9c-.7-.7-.8-1.9-.2-2.7L80.6 76c.4-.4.9-.7 1.5-.8.6 0 1.1.2 1.5.6l10.1 10.1c.4.4.6 1 .6 1.5 0 .6-.3 1.1-.8 1.5l-20.7 16.5c-.3.3-.8.5-1.2.5zm-3.2-8.1l3.4 3.4 17.6-14-7-7-14 17.6z"/></g></g></svg>