<svg viewBox="0 0 128 128" xmlns="http://www.w3.org/2000/svg" xmlns:xlink="http://www.w3.org/1999/xlink"><clipPath id="a"><path d="m27.7 27.4h64v61.7h-64z"/></clipPath><clipPath id="b"><path d="m27.7 27.4h64v61.7h-64z"/></clipPath><clipPath id="c"><path d="m39.3 38.2h64v61.7h-64z"/></clipPath><clipPath id="d"><path d="m39.3 38.2h64v61.7h-64z"/></clipPath><path d="m16.7 15.6h86.1v86.1h-86.1z" fill="#fff"/><path d="m103.9 102.8h-88.4v-88.3h88.3v88.3zm-86.1-2.3h83.8v-83.8h-83.8z" fill="#37474f"/><path d="m27.7 27.4h64v61.7h-64z" fill="#b0bec5"/><g clip-path="url(#a)"><path d="m28 89.4 23.9-23.9 11.8 11.7 22.1-22.1 12.2 12.3 14.2 14.2-11.5 23.3-53.7-8.9-18.7-1.1-1.4-4.1z" fill="#ffab00"/><path d="m100.7 106.1h-.2l-53.6-8.9-18.6-1.2c-.5 0-.8-.3-1-.8l-1.5-4.1c-.2-.4-.1-.8.2-1.1l1.1-1.4.1-.1 23.8-23.9c.5-.5 1.2-.5 1.6 0l11 11 21.3-21.3c.5-.5 1.2-.5 1.6 0l26.4 26.4c.4.4.5.8.2 1.3l-11.5 23.4c-.1.5-.5.7-.9.7zm-71.5-12.4 17.9 1.1h.2l52.9 8.8 10.7-21.9-25-25.1-21.5 21.5c-.2.2-.5.3-.8.3s-.6-.2-.8-.3l-10.9-11-23.1 23.1-.7.8z" fill="#37474f"/></g><g clip-path="url(#b)"><path d="m115.8 50.8c0-2.4-1.7-4.2-3.9-4.6-.5-2.2-2.3-3.9-4.6-3.9-2 0-3.7 1.2-4.4 2.9-.5-.2-1.1-.5-1.6-.5 0-.2.1-.2.1-.3 0-4-3.2-7.2-7.2-7.2-1.8-4.6-6.1-7.8-11.3-7.8-5.4 0-9.9 3.7-11.4 8.6h-.2c-4 0-7.2 3.3-7.2 7.2 0 .8.2 1.4.5 2.1-1.8.7-3 2.4-3 4.5 0 1.9 1.1 3.4 2.7 4.2l-.8.3h2.4c.2 0 .4.2.6.2s.4-.2.6-.2h46.9l-2.4-.6c2.3-.6 4.2-2.5 4.2-4.9zm-12.4 2.3c.6-.5 1.2-1.1 1.5-1.8.5.2.8.4 1.4.5.2 1.1.8 2.1 1.6 2.7z" fill="#fff"/><path d="m66.3 57.3c-.3 0-.5-.1-.6-.1h-9.5l5.6-1.8c-.9-1.1-1.4-2.4-1.4-3.7 0-2.1 1.1-4 2.8-5-.1-.5-.2-.9-.2-1.4 0-4.4 3.4-8.1 7.8-8.4 2-5.2 6.8-8.6 12.2-8.6 5.3 0 9.9 3 12 7.8 4 .4 7.2 3.7 7.5 7.7 1.1-1.5 2.9-2.5 4.9-2.5 2.6 0 4.8 1.7 5.6 4.1 2.4.8 4.1 3 4.1 5.6 0 1.7-.8 3.2-2 4.3l8.5 2.1h-56.7c-.2-.2-.4-.1-.6-.1zm-1.3-2.5h.7c.2 0 .5.1.6.1.2-.1.4-.1.6-.1h38.4l-4.3-1.3 1.8-1.4c.6-.5 1-.9 1.2-1.4l.5-1.1 1.1.6c.3.2.6.3 1.1.4l.8.2.2.8c.2.8.5 1.5 1.2 2.1l1.1.9 1.7-.2c2-.2 3.3-1.7 3.3-3.5s-1.2-3.2-3-3.5l-.8-.2-.2-.8c-.4-1.8-1.8-3-3.5-3-1.4 0-2.7.8-3.4 2.2l-.5 1.1-1.1-.5c-.4-.2-.8-.3-1.2-.4l-1.1-.2.2-1.1c0-.1 0-.2.1-.3-.1-3.3-2.7-5.9-6.1-6h-.8l-.3-.8c-1.6-4.3-5.6-7.1-10.2-7.1-4.7 0-8.8 3.1-10.3 7.8l-.2.8h-1c-3.4.1-6 2.8-6 6.1 0 .5.2 1.1.4 1.7l.3 1-1.3.3c-1.4.6-2.3 1.9-2.3 3.4 0 1.4.8 2.5 2.1 3.1z" fill="#37474f"/></g><path d="m93.2 90.6h-66.2v-64h66.3v64zm-64-2.3h61.7v-59.4h-61.7z" fill="#37474f"/><path d="m29.9 87.6 23.8-7.6-1-11.7" fill="#ffecb3"/><path d="m29.9 88.8c-.5 0-.9-.3-1.1-.8-.2-.6.2-1.2.8-1.4l22.9-7.4-.9-10.8c-.1-.6.4-1.2 1.1-1.2.6-.1 1.2.4 1.2 1.1l1 11.7c.1.5-.3 1-.8 1.2l-23.8 7.7c-.2-.1-.3-.1-.4-.1z" fill="#37474f"/><path d="m63.7 77.2 21.6-10.9.2-8.7" fill="#ffecb3"/><path d="m63.7 78.4c-.4 0-.8-.2-1-.6-.3-.5-.1-1.2.5-1.5l21-10.7.2-8c0-.6.5-1.1 1.1-1.1s1.1.5 1.1 1.1l-.4 8.8c0 .4-.2.8-.6 1l-21.6 11z" fill="#37474f"/><path d="m54.1 58.6c-6.7 0-12.1-5.4-12.1-12.1 0-4 1.9-7.4 4.8-9.6-6.4.8-11.3 6.2-11.3 12.9 0 7.2 5.8 13 13 13 4.2 0 7.9-2.1 10.3-5.2-1.5.7-3 1-4.7 1z" fill="#fff"/><path d="m48.5 64c-7.8 0-14.2-6.3-14.2-14.2 0-7 5.3-13 12.3-13.9l4.3-.5-3.4 2.6c-2.7 2.1-4.3 5.3-4.3 8.7 0 6 4.9 11 11 11 1.4 0 2.9-.3 4.3-.8l4-1.8-2.7 3.4c-2.8 3.4-6.9 5.5-11.3 5.5zm-5.5-24.6c-3.8 2-6.4 5.9-6.4 10.4 0 6.5 5.3 11.9 11.9 11.9 2.3 0 4.5-.7 6.4-1.9h-.8c-7.3 0-13.3-5.9-13.3-13.3.1-2.6.9-5 2.2-7.1z" fill="#37474f"/><path d="m68.1 21.5c0-.8.6-1.4 1.4-1.4s1.4.6 1.4 1.4-.6 1.4-1.4 1.4-1.4-.7-1.4-1.4z" fill="#37474f"/><path d="m69.5 23.2c-1 0-1.8-.8-1.8-1.8s.8-1.8 1.8-1.8 1.8.8 1.8 1.8c-.1 1.1-.9 1.8-1.8 1.8zm0-2.7c-.5 0-1 .5-1 1s.5 1 1 1 1-.5 1-1c-.1-.6-.5-1-1-1z" fill="#3f3f3f"/><path d="m58.6 21.5c0-.8.6-1.4 1.4-1.4s1.4.6 1.4 1.4-.6 1.4-1.4 1.4-1.4-.7-1.4-1.4z" fill="#37474f"/><path d="m59.9 23.2c-1 0-1.8-.8-1.8-1.8s.8-1.8 1.8-1.8 1.8.8 1.8 1.8-.8 1.8-1.8 1.8zm0-2.7c-.5 0-1 .5-1 1s.5 1 1 1 1-.5 1-1c0-.6-.4-1-1-1z" fill="#3f3f3f"/><path d="m49 21.5c0-.8.6-1.4 1.4-1.4s1.4.6 1.4 1.4-.6 1.4-1.4 1.4c-.8-.1-1.4-.7-1.4-1.4z" fill="#37474f"/><path d="m50.3 23.2c-1 0-1.8-.8-1.8-1.8s.8-1.8 1.8-1.8 1.8.8 1.8 1.8c0 1.1-.8 1.8-1.8 1.8zm0-2.7c-.5 0-1 .5-1 1s.5 1 1 1 1-.5 1-1c0-.6-.4-1-1-1z" fill="#3f3f3f"/><path d="m28.2 26.4h86.1v86.1h-86.1z" fill="#fff"/><path d="m115.4 113.6h-88.3v-88.3h88.3zm-86-2.3h83.8v-83.7h-83.8z" fill="#37474f"/><path d="m39.3 38.2h64v61.7h-64z" fill="#b0bec5"/><g clip-path="url(#c)"><path d="m39.5 100.2 23.9-23.9 11.8 11.7 22.1-22 12.3 12.2 14.1 14.2-11.5 23.4-53.7-8.9-18.6-1.2-1.5-4.1z" fill="#ffab00"/><path d="m112.2 116.9h-.2l-53.5-8.9-18.6-1.1c-.5 0-.8-.3-1-.8l-1.5-4.1c-.2-.4-.1-.8.2-1.1l1.1-1.4.1-.1 23.9-23.9c.5-.5 1.2-.5 1.6 0l11 11 21.3-21.3c.5-.5 1.2-.5 1.6 0l26.4 26.4c.4.4.5.8.2 1.3l-11.5 23.4c-.2.4-.7.6-1.1.6zm-71.5-12.3 17.9 1.1h.2l52.9 8.8 10.7-21.9-25-25.1-21.4 21.4c-.2.2-.5.3-.8.3s-.6-.2-.8-.3l-10.9-11-23.2 23.1-.7.8z" fill="#37474f"/></g><g clip-path="url(#d)"><path d="m127.4 61.6c0-2.4-1.7-4.2-3.9-4.6-.5-2.2-2.3-3.9-4.6-3.9-2 0-3.7 1.2-4.4 2.9-.5-.2-1.1-.5-1.6-.5 0-.2.1-.2.1-.3 0-4-3.2-7.2-7.2-7.2-1.8-4.6-6.1-7.8-11.3-7.8-5.4 0-9.9 3.7-11.4 8.6h-.2c-4 0-7.2 3.3-7.2 7.2 0 .8.2 1.4.5 2.1-1.8.7-3 2.4-3 4.5 0 1.9 1.1 3.4 2.7 4.2l-.8.3h2.4c.2 0 .4.2.6.2s.4-.2.6-.2h47.1l-2.4-.6c2.1-.6 4-2.5 4-4.9zm-12.4 2.3c.6-.5 1.2-1.1 1.5-1.8.5.2.8.4 1.4.5.2 1.1.8 2.1 1.6 2.7z" fill="#fff"/><path d="m77.8 68.1c-.3 0-.5-.1-.6-.1h-9.5l5.6-1.8c-.9-1.1-1.4-2.4-1.4-3.7 0-2.1 1.1-4 2.8-5-.1-.5-.2-.9-.2-1.4 0-4.4 3.4-8.1 7.8-8.4 2-5.2 6.8-8.6 12.2-8.6 5.3 0 9.9 3 12 7.8 4 .4 7.2 3.7 7.5 7.7 1.1-1.5 2.9-2.5 4.9-2.5 2.6 0 4.8 1.7 5.6 4.1 2.4.8 4.1 3 4.1 5.6 0 1.7-.8 3.2-2 4.3l8.4 1.9h-56.5c-.2 0-.5.1-.7.1zm-1.3-2.5h.7c.2 0 .5.1.6.1.2-.1.4-.1.6-.1h38.4l-4.3-1.3 1.8-1.4c.6-.5 1-.9 1.2-1.4l.5-1.1 1.1.6c.3.2.6.3 1.1.4l.8.2.2.8c.2.8.5 1.5 1.2 2.1l1.1.9 1.7-.2c2-.2 3.3-1.7 3.3-3.5s-1.2-3.2-3-3.5l-.8-.2-.2-.8c-.4-1.8-1.8-3-3.5-3-1.4 0-2.7.8-3.4 2.2l-.5 1.1-1.1-.5c-.4-.2-.8-.3-1.2-.4l-1.1-.2.2-1.1c0-.1 0-.2.1-.3-.1-3.3-2.7-5.9-6.1-6h-.9l-.3-.8c-1.6-4.3-5.6-7.1-10.2-7.1-4.7 0-8.8 3.1-10.3 7.8l-.2.8h-1c-3.4.1-6 2.8-6 6.1 0 .5.2 1.1.4 1.7l.3 1-1 .4c-1.4.6-2.3 1.9-2.3 3.4 0 1.4.8 2.5 2.1 3.1z" fill="#37474f"/></g><path d="m104.8 101.4h-66.3v-64h66.3zm-64-2.2h61.7v-59.4h-61.7z" fill="#37474f"/><path d="m41.4 98.5 23.9-7.7-1-11.7" fill="#ffecb3"/><path d="m41.4 99.6c-.5 0-.9-.3-1.1-.8-.2-.6.2-1.2.8-1.4l22.9-7.4-.9-10.8c-.1-.6.4-1.2 1.1-1.2.6-.1 1.2.4 1.2 1.1l1 11.7c.1.5-.3 1-.8 1.2l-23.8 7.7c-.2-.1-.2-.1-.4-.1z" fill="#37474f"/><path d="m75.2 88 21.7-10.9.2-8.7" fill="#ffecb3"/><path d="m75.2 89.2c-.4 0-.8-.2-1-.6-.3-.5-.1-1.2.5-1.5l21-10.7.2-8c0-.6.5-1.1 1.1-1.1s1.1.5 1.1 1.1l-.4 8.8c0 .4-.2.8-.6 1l-21.6 11z" fill="#37474f"/><path d="m65.6 69.5c-6.7 0-12.1-5.4-12.1-12.1 0-4 1.9-7.4 4.8-9.6-6.4.8-11.3 6.2-11.3 12.8 0 7.2 5.8 13 13 13 4.2 0 7.9-2.1 10.3-5.2-1.4.8-2.9 1.1-4.7 1.1z" fill="#fff"/><path d="m60.1 74.8c-7.8 0-14.2-6.3-14.2-14.2 0-7 5.3-13 12.3-13.9l4.3-.5-3.4 2.6c-2.7 2.1-4.3 5.3-4.3 8.7 0 6 4.9 11 11 11 1.4 0 2.9-.3 4.3-.8l4-1.8-2.7 3.4c-2.8 3.4-6.9 5.5-11.3 5.5zm-5.5-24.6c-3.8 2-6.4 5.9-6.4 10.4 0 6.5 5.3 11.9 11.9 11.9 2.3 0 4.5-.7 6.4-1.9h-.8c-7.3 0-13.3-5.9-13.3-13.3.1-2.5.8-5 2.2-7.1z" fill="#37474f"/><path d="m79.6 32.3c0-.8.6-1.4 1.4-1.4s1.4.6 1.4 1.4-.6 1.4-1.4 1.4-1.4-.6-1.4-1.4z" fill="#37474f"/><path d="m81 34c-1 0-1.8-.8-1.8-1.8s.8-1.8 1.8-1.8 1.8.8 1.8 1.8c0 1.1-.8 1.8-1.8 1.8zm0-2.7c-.5 0-1 .5-1 1s.5 1 1 1 1-.5 1-1-.5-1-1-1z" fill="#3f3f3f"/><path d="m70.1 32.3c0-.8.6-1.4 1.4-1.4s1.4.6 1.4 1.4-.6 1.4-1.4 1.4-1.4-.6-1.4-1.4z" fill="#37474f"/><path d="m71.5 34c-1 0-1.8-.8-1.8-1.8s.8-1.8 1.8-1.8 1.8.8 1.8 1.8c-.1 1-.9 1.8-1.8 1.8zm0-2.7c-.5 0-1 .5-1 1s.5 1 1 1 1-.5 1-1-.5-1-1-1z" fill="#3f3f3f"/><path d="m60.5 32.3c0-.8.6-1.4 1.4-1.4s1.4.6 1.4 1.4-.6 1.4-1.4 1.4-1.4-.6-1.4-1.4z" fill="#37474f"/><path d="m61.9 34c-1 0-1.8-.8-1.8-1.8s.8-1.8 1.8-1.8 1.8.8 1.8 1.8c0 1.1-.8 1.8-1.8 1.8zm0-2.7c-.5 0-1 .5-1 1s.5 1 1 1 1-.5 1-1-.5-1-1-1z" fill="#3f3f3f"/></svg>