<svg viewBox="0 0 64 64" xmlns="http://www.w3.org/2000/svg"><path d="m29 57.5h-21v-51h21" fill="#ffecb3"/><path d="m29 58.5h-21c-.6 0-1-.4-1-1v-51c0-.6.4-1 1-1h21c.6 0 1 .4 1 1s-.4 1-1 1h-20v49h20c.6 0 1 .4 1 1s-.4 1-1 1z" fill="#37474f"/><path d="m29 5.5c.6 0 1 .4 1 1v51c0 .6-.4 1-1 1-1 0-1-2-1-2v-49s0-2 1-2z" fill="#37474f"/><path d="m32.8 19.9v-13.4h25v13.4" fill="#ffab00"/><path d="m57.8 20.5c-.6 0-1-.4-1-1v-12h-23v12c0 .6-.4 1-1 1s-1-.4-1-1v-13c0-.6.4-1 1-1h25c.6 0 1 .4 1 1v13c0 .6-.4 1-1 1z" fill="#37474f"/><path d="m31.8 19.5c0-.6.2-1 .5-1h25.9c.3 0 .5.4.5 1 0 1-1 1-1 1h-24.9s-1 0-1-1z" fill="#37474f"/><path d="m32.8 56.9v-33.5h25v33.5" fill="#b0bec5"/><g fill="#37474f"><path d="m57.8 58.4c-.6 0-1-.4-1-1v-33h-23v33c0 .6-.4 1-1 1s-1-.4-1-1v-34c0-.6.4-1 1-1h25c.6 0 1 .4 1 1v34c0 .6-.4 1-1 1z"/><path d="m31.8 57.5c0-.6.2-1 .5-1h25.9c.3 0 .5.4.5 1 0 1-1 1-1 1h-24.9s-1 0-1-1z"/></g></svg>