<svg viewBox="236 -236 512 512" xmlns="http://www.w3.org/2000/svg"><path d="m492-236c-141.4 0-256 114.6-256 256s114.6 256 256 256 256-114.6 256-256-114.6-256-256-256zm103.8 202.7c.1 2.3.2 4.7.2 6.9-.1 70.9-54 152.4-152.4 152.4-30.3 0-58.4-8.9-82.1-24 4.2.4 8.5.7 12.8.7 25.1 0 48.2-8.6 66.5-22.9-23.5-.4-43.2-15.9-50-37.2 3.3.6 6.6 1 10.1 1 4.9 0 9.6-.7 14.1-1.9-24.5-5-43-26.6-43-52.5v-.7c7.2 4 15.5 6.4 24.3 6.7-14.3-9.6-23.8-26-23.8-44.5 0-9.8 2.6-19 7.2-26.9 26.4 32.4 65.8 53.7 110.3 55.9-1-3.9-1.4-8-1.4-12.2 0-29.5 24-53.5 53.6-53.5 15.4 0 29.3 6.5 39.1 16.9 12.2-2.4 23.6-6.9 34-13-4 12.6-12.5 23-23.5 29.6 10.9-1.3 21.2-4.1 30.8-8.4-7.3 10.7-16.4 20.2-26.8 27.6z" fill="#ff6700"/></svg>