<svg viewBox="236 -236 512 512" xmlns="http://www.w3.org/2000/svg"><path d="m622.5-60.9c-9.6 4.3-19.9 7.1-30.8 8.4 11-6.6 19.6-17.1 23.5-29.6-10.4 6.1-21.8 10.6-34 13-9.7-10.4-23.6-16.9-39-16.9-29.6 0-53.6 24-53.6 53.5 0 4.2.4 8.3 1.4 12.2-44.5-2.2-83.9-23.5-110.3-55.9-4.6 7.9-7.2 17.1-7.2 26.9 0 18.5 9.5 35 23.8 44.5-8.8-.3-17-2.7-24.3-6.7v.7c0 25.9 18.4 47.6 42.9 52.5-4.5 1.2-9.2 1.9-14.1 1.9-3.5 0-6.8-.3-10.1-1 6.8 21.3 26.6 36.8 50 37.2-18.3 14.3-41.4 22.9-66.5 22.9-4.3 0-8.6-.3-12.8-.7 23.7 15.2 51.8 24 82.1 24 98.4 0 152.3-81.6 152.3-152.3 0-2.3-.1-4.7-.2-6.9 10.6-7.5 19.7-17 26.9-27.7z"/><path d="m492 276c-68.4 0-132.7-26.6-181-75-48.4-48.4-75-112.6-75-181s26.6-132.7 75-181 112.6-75 181-75 132.7 26.6 181 75c48.4 48.4 75 112.6 75 181s-26.6 132.7-75 181c-48.3 48.4-112.6 75-181 75zm0-492.8c-63.2 0-122.7 24.6-167.4 69.3s-69.4 104.3-69.4 167.5 24.6 122.7 69.3 167.4 104.2 69.3 167.4 69.3 122.7-24.6 167.4-69.3 69.3-104.2 69.3-167.4-24.6-122.7-69.3-167.4c-44.6-44.7-104.1-69.4-167.3-69.4z"/></svg>