<svg xmlns="http://www.w3.org/2000/svg" width="32" height="32" viewBox="0 0 32 32"><path d="M30.048 27.469c-.187-.124-3.577-2.347-8.621-3.439 1.85-2.344 3.038-5.496 3.543-7.595.701-2.908.429-8.598-2.364-12.144C20.973 2.219 18.689 1.125 16 1.125S11.027 2.22 9.396 4.292c-2.793 3.545-3.064 9.235-2.364 12.143.505 2.098 1.692 5.251 3.543 7.595-5.044 1.091-8.434 3.315-8.62 3.439a1.858 1.858 0 0 0-.748 2.084c.236.786.96 1.323 1.779 1.323h26.031a1.86 1.86 0 0 0 1.031-3.407zM8.714 11.117C9.221 7.139 11.5 2.984 16 2.984s6.78 4.156 7.287 8.134c.551 4.142-.729 8.477-3.32 11.76l-.303.385c-2.217 2.547-5.109 2.547-7.325 0l-.304-.385c-2.589-3.281-3.874-7.621-3.321-11.761zm-5.73 17.899c.128-.086 3.278-2.151 7.982-3.168l2.309-.499c.825.541 1.729.879 2.724.879.996 0 1.899-.337 2.724-.879l2.309.499c4.667 1.01 7.806 3.052 7.982 3.168H2.984z"/></svg>