<svg viewBox="0 0 128 128" xmlns="http://www.w3.org/2000/svg"><path d="m112.8 64c0 26.9-21.8 48.8-48.8 48.8s-48.8-21.8-48.8-48.8 21.9-48.8 48.8-48.8 48.8 21.9 48.8 48.8z" fill="#ffab00"/><path d="m64 114c-27.5 0-50-22.4-50-50 0-27.5 22.4-50 50-50 27.5 0 50 22.4 50 50 0 27.5-22.5 50-50 50zm0-97.5c-26.2 0-47.5 21.3-47.5 47.5s21.3 47.5 47.5 47.5 47.5-21.3 47.5-47.5-21.3-47.5-47.5-47.5z" fill="#37474f"/><path d="m102.9 64c0 21.5-17.4 38.9-38.9 38.9s-38.9-17.4-38.9-38.9 17.4-38.9 38.9-38.9 38.9 17.4 38.9 38.9z" fill="#ffecb3"/><g fill="#37474f"><path d="m64 104.1c-22.2 0-40.1-18.1-40.1-40.1 0-22.2 18.1-40.1 40.1-40.1s40.1 18.1 40.1 40.1c0 22.2-17.9 40.1-40.1 40.1zm0-77.8c-20.8 0-37.7 16.9-37.7 37.7s16.9 37.7 37.7 37.7 37.7-16.9 37.7-37.7-16.9-37.7-37.7-37.7z"/><path d="m52.4 84.8 34-20.8-34-20.8z"/><path d="m52.4 86c-.2 0-.4 0-.5-.2-.4-.2-.7-.7-.7-1.1v-41.5c0-.4.2-.9.7-1.1.4-.2.9-.2 1.2 0l34 20.8c.4.2.5.7.5 1.1s-.2.9-.5 1.1l-34 20.8c-.4.1-.5.1-.7.1zm1.2-40.7v37.1l30.3-18.7z"/></g></svg>