<svg height="128" viewBox="0 0 128 128" width="128" xmlns="http://www.w3.org/2000/svg"><path d="m105.2 105.3c-22.6 22.6-59.3 22.6-81.9 0-22.6-22.7-22.6-59.3 0-82 22.6-22.6 59.3-22.6 81.9 0 22.7 22.7 22.7 59.3 0 82z" fill="#78909c"/><path d="m64.3 123.7c-15.9 0-30.8-6.2-42-17.4-23.2-23.2-23.2-60.9 0-84.1 11.2-11.2 26.1-17.3 42-17.3s30.8 6.2 42 17.4c23.2 23.2 23.2 60.9 0 84.1-11.2 11.1-26.1 17.3-42 17.3zm0-115.8c-15.1 0-29.2 5.9-39.9 16.5-22 22-22 57.8 0 79.8 10.7 10.7 24.8 16.5 39.9 16.5s29.2-5.9 39.9-16.5c22-22 22-57.8 0-79.8-10.7-10.7-24.8-16.5-39.9-16.5z" fill="#37474f"/><path d="m121.6 72.8c-3.1 20.8-31.2 33.9-62.9 29.2-31.6-4.7-54.8-25.4-51.7-46.2s31.2-33.9 62.9-29.2c31.6 4.7 54.8 25.4 51.7 46.2z" fill="#fff"/><path d="m71.4 104.4c-4.3 0-8.6-.3-13-1-32.4-4.8-56.2-26.3-53-47.9 2.7-18.5 23.9-31.4 51.6-31.4 4.3 0 8.7.3 13 1 15.6 2.3 29.7 8.5 39.7 17.4 10.2 9.1 14.9 19.9 13.3 30.5-2.7 18.5-23.9 31.4-51.6 31.4zm-14.3-77.2c-25.7 0-46.2 12.1-48.6 28.8-3 20 19.7 39.9 50.4 44.5 4.2.6 8.4.9 12.5.9 25.7 0 46.2-12.1 48.6-28.9 1.4-9.6-3-19.4-12.3-27.8-9.6-8.5-23.1-14.4-38.1-16.7-4.1-.5-8.4-.8-12.5-.8z" fill="#37474f"/><path d="m94.5 94.5c-22.6 22.6-54.5 27.4-71.2 10.7-16.7-16.6-11.9-48.5 10.8-71.1 22.6-22.6 54.5-27.5 71.2-10.8 16.6 16.7 11.8 48.6-10.8 71.2z" fill="#ffab00"/><path d="m49.2 116.7c-10.8 0-20.2-3.6-27-10.4-17.2-17.2-12.3-50.1 10.8-73.3 13.2-13.2 30.6-21.1 46.4-21.1 10.8 0 20.2 3.6 27 10.4 17.2 17.3 12.4 50.1-10.8 73.3-13.3 13.2-30.6 21.1-46.4 21.1zm30.2-101.8c-15 0-31.5 7.6-44.2 20.3-22 22-26.8 53-10.7 69.1 6.2 6.2 14.8 9.5 24.8 9.5 15 0 31.5-7.6 44.2-20.2 22-22 26.8-53 10.7-69.1-6.2-6.3-14.8-9.6-24.8-9.6z" fill="#37474f"/><path d="m72.1 72.1c-22.6 22.6-44.4 37.5-48.7 33.2-4.4-4.3 10.5-26.1 33.1-48.8 22.6-22.6 44.4-37.5 48.7-33.2s-10.5 26.1-33.1 48.8z" fill="#ffecb3"/><g fill="#37474f"><path d="m25.5 107.5c-1.4 0-2.5-.4-3.2-1.2-6.5-6.5 16.3-34 33.2-50.9 20.2-20.2 39.8-34.4 47.6-34.4 1.4 0 2.4.4 3.2 1.2 6.5 6.5-16.3 34-33.2 50.9-20.2 20.3-39.8 34.4-47.6 34.4zm77.6-83.4c-5.8 0-23.7 11.7-45.5 33.5-24.4 24.4-35.9 43.9-33.2 46.6.2.2.7.3 1.1.3 5.8 0 23.7-11.7 45.5-33.5 24.3-24.4 35.9-43.9 33.2-46.6-.2-.3-.7-.3-1.1-.3z"/><path d="m83.8 114.8c-15.6 0-33.4-8.4-47.5-22.5-23.2-23.2-29.4-54.6-14-70 5.6-5.6 13.4-8.5 22.5-8.5 15.6 0 33.4 8.4 47.5 22.5 23.2 23.2 29.4 54.6 14 70-5.6 5.6-13.4 8.5-22.5 8.5zm-39-98c-8.4 0-15.4 2.6-20.4 7.6-14.3 14.3-8 43.8 14 65.8 13.6 13.6 30.5 21.7 45.3 21.7 8.4 0 15.4-2.6 20.4-7.6 14.3-14.3 8-43.8-14-65.8-13.5-13.6-30.4-21.7-45.3-21.7z"/><path d="m6.5 62.8h115.6v3h-115.6z" transform="matrix(.70720551 .70700804 -.70700804 .70720551 64.283547 -26.628861)"/><g><path d="m84 44.6c-.6-.6-.6-1.6 0-2.2s1.6-.6 2.2 0 .6 1.6 0 2.2-1.6.6-2.2 0z"/><path d="m85.1 45.6c-.6 0-1.1-.2-1.5-.6-.8-.8-.8-2.1 0-2.9s2.1-.8 2.9 0 .8 2.1 0 2.9c-.4.3-.9.6-1.4.6zm0-3.1c-.3 0-.6.1-.8.3-.4.4-.4 1.1 0 1.5s1.1.4 1.5 0 .4-1.1 0-1.5c-.2-.2-.4-.3-.7-.3zm-8.8 9.8c-.6-.6-.6-1.6 0-2.2s1.6-.6 2.2 0 .6 1.6 0 2.2-1.6.6-2.2 0z"/><path d="m77.4 53.2c-.6 0-1.1-.2-1.5-.6s-.6-.9-.6-1.4c0-.6.2-1.1.6-1.4.8-.8 2.1-.8 2.9 0s.8 2.1 0 2.9c-.3.3-.8.5-1.4.5zm0-3.1c-.3 0-.6.1-.8.3s-.3.5-.3.7c0 .3.1.5.3.7.4.4 1.1.4 1.5 0s.4-1.1 0-1.5c-.1-.1-.4-.2-.7-.2z"/><path d="m68.6 60c-.6-.6-.6-1.6 0-2.2s1.6-.6 2.2 0 .6 1.6 0 2.2-1.6.6-2.2 0z"/><path d="m69.7 60.9c-.6 0-1.1-.2-1.5-.6s-.6-.9-.6-1.5c0-.5.2-1.1.6-1.4.8-.8 2.1-.8 2.9 0s.8 2.1 0 2.9c-.3.4-.8.6-1.4.6zm0-3.1c-.3 0-.6.1-.8.3s-.3.5-.3.7c0 .3.1.6.3.8.4.4 1.1.4 1.5 0s.4-1.1 0-1.5c-.2-.2-.4-.3-.7-.3z"/></g></g></svg>