<svg viewBox="0 0 128 128" xmlns="http://www.w3.org/2000/svg"><path d="m9.5 8.5h109v91h-109z" fill="#ffab00"/><path d="m118.5 101h-109c-.8 0-1.5-.7-1.5-1.5v-91c0-.8.7-1.5 1.5-1.5h109c.8 0 1.5.7 1.5 1.5v91c0 .8-.7 1.5-1.5 1.5zm-107.5-3h106v-88h-106z" fill="#37474f"/><path d="m9.5 27.5h109v92h-109z" fill="#fff"/><path d="m118.5 121h-109c-.8 0-1.5-.7-1.5-1.5v-92c0-.8.7-1.5 1.5-1.5h109c.8 0 1.5.7 1.5 1.5v92c0 .8-.7 1.5-1.5 1.5zm-107.5-3h106v-89h-106z" fill="#37474f"/><path d="m54.5 96.5 15.8-47h3.8l-15.9 47z" fill="#ffab00"/><path d="m58.3 98h-3.8c-.5 0-.9-.2-1.2-.6s-.3-.9-.2-1.4l15.8-47c.2-.6.8-1 1.4-1h3.8c.5 0 .9.2 1.2.6s.4.9.2 1.4l-15.8 47c-.2.6-.7 1-1.4 1zm-1.7-3h.6l14.9-44h-.7z" fill="#ffab00"/><g fill="#37474f"><path d="m19.5 71.8 27-15.6v4.5l-22 12.8v.1l22 12.8v4.5l-27-15.6z"/><path d="m46.5 92.4c-.3 0-.5-.1-.8-.2l-27-15.6c-.5-.3-.7-.8-.7-1.3v-3.5c0-.5.3-1 .7-1.3l27-15.6c.5-.3 1-.3 1.5 0s.8.8.8 1.3v4.5c0 .5-.3 1-.7 1.3l-19.9 11.5 19.9 11.6c.5.3.7.8.7 1.3v4.5c0 .5-.3 1-.8 1.3-.2.2-.4.2-.7.2zm-25.5-18 24 13.9v-1.1l-21.3-12.3c-.5-.3-.7-.8-.7-1.3v-.1c0-.5.3-1 .7-1.3l21.3-12.4v-1l-24 13.8z"/><path d="m107.5 75.3-26 15.6v-4.5l23-12.8v-.1l-23-12.8v-4.5l26 15.6z"/><path d="m81.5 92.4c-.3 0-.5-.1-.7-.2-.5-.2-.8-.7-.8-1.3v-4.5c0-.5.3-1 .8-1.3l20.8-11.6-20.8-11.6c-.5-.3-.8-.8-.8-1.3v-4.5c0-.5.3-1 .8-1.3s1-.3 1.5 0l26 15.6c.5.3.7.8.7 1.3v3.7c0 .5-.3 1-.7 1.3l-26 15.6c-.3 0-.5.1-.8.1zm1.5-5.1v1l23-13.8v-.9c0 .5-.3 1-.8 1.3zm0-27.6 22.2 12.4c.5.3.8.8.8 1.3v-.9l-23-13.7z"/><path d="m87.1 18.6c0 .9-.8 1.7-1.7 1.7-1 0-1.7-.8-1.7-1.7s.8-1.7 1.7-1.7 1.7.8 1.7 1.7z"/><path d="m85.4 20.8c-1.2 0-2.2-1-2.2-2.2s1-2.2 2.2-2.2 2.2 1 2.2 2.2-1 2.2-2.2 2.2zm0-3.4c-.7 0-1.2.5-1.2 1.2s.5 1.2 1.2 1.2c.6 0 1.2-.5 1.2-1.2s-.5-1.2-1.2-1.2zm13.7 1.2c0 .9-.8 1.7-1.7 1.7s-1.7-.8-1.7-1.7.8-1.7 1.7-1.7 1.7.8 1.7 1.7z"/><path d="m97.3 20.8c-1.2 0-2.2-1-2.2-2.2s1-2.2 2.2-2.2 2.2 1 2.2 2.2c.1 1.2-1 2.2-2.2 2.2zm0-3.4c-.7 0-1.2.5-1.2 1.2s.5 1.2 1.2 1.2 1.2-.5 1.2-1.2c.1-.7-.5-1.2-1.2-1.2z"/><path d="m111 18.6c0 .9-.8 1.7-1.7 1.7-1 0-1.7-.8-1.7-1.7s.8-1.7 1.7-1.7 1.7.8 1.7 1.7z"/><path d="m109.3 20.8c-1.2 0-2.2-1-2.2-2.2s1-2.2 2.2-2.2 2.2 1 2.2 2.2-1 2.2-2.2 2.2zm0-3.4c-.7 0-1.2.5-1.2 1.2s.6 1.2 1.2 1.2 1.2-.5 1.2-1.2-.6-1.2-1.2-1.2z"/></g><path d="m26.3 17.5c0 2.1-1.7 3.7-3.7 3.7-2.1 0-3.7-1.7-3.7-3.7 0-2.1 1.7-3.7 3.7-3.7s3.7 1.7 3.7 3.7z" fill="#ffab00"/><path d="m22.5 22.8c-2.9 0-5.2-2.3-5.2-5.2s2.3-5.2 5.2-5.2 5.2 2.3 5.2 5.2c.1 2.8-2.3 5.2-5.2 5.2zm0-7.5c-1.2 0-2.2 1-2.2 2.2s1 2.2 2.2 2.2 2.2-1 2.2-2.2c.1-1.2-.9-2.2-2.2-2.2z" fill="#37474f"/><path d="m39.4 17.5c0 2.1-1.7 3.7-3.7 3.7-2.1 0-3.7-1.7-3.7-3.7 0-2.1 1.7-3.7 3.7-3.7 2.1 0 3.7 1.7 3.7 3.7z" fill="#b0bec5"/><path d="m35.7 22.8c-2.9 0-5.2-2.3-5.2-5.2s2.3-5.2 5.2-5.2 5.2 2.3 5.2 5.2c0 2.8-2.3 5.2-5.2 5.2zm0-7.5c-1.2 0-2.2 1-2.2 2.2s1 2.2 2.2 2.2 2.2-1 2.2-2.2-1-2.2-2.2-2.2z" fill="#37474f"/><path d="m52.6 17.5c0 2.1-1.7 3.7-3.7 3.7-2.1 0-3.7-1.7-3.7-3.7 0-2.1 1.7-3.7 3.7-3.7s3.7 1.7 3.7 3.7z" fill="#ffecb3"/><path d="m48.9 22.8c-2.9 0-5.2-2.3-5.2-5.2s2.3-5.2 5.2-5.2 5.2 2.3 5.2 5.2c0 2.8-2.3 5.2-5.2 5.2zm0-7.5c-1.2 0-2.2 1-2.2 2.2s1 2.2 2.2 2.2 2.2-1 2.2-2.2-1-2.2-2.2-2.2z" fill="#37474f"/></svg>